<svg xmlns="http://www.w3.org/2000/svg" width="20" height="20" fill="none"><rect id="backgroundrect" width="100%" height="100%" x="0" y="0" fill="none" stroke="none"/>

<g class="currentLayer" style=""><title>Layer 1</title><path d="M9.75,0 C4.35,0 0,4.35 0,9.75 C0,15.149999999999999 4.35,19.5 9.75,19.5 C15.149999999999999,19.5 19.5,15.149999999999999 19.5,9.75 C19.5,8.7015 19.359,7.6553 18.984,6.679500000000001 L17.766,7.875 C17.916,8.475 18.0007,9.0765 18.0007,9.75 C18.0007,14.3265 14.327200000000001,18 9.7507,18 C5.17425,18 1.5,14.3265 1.5,9.75 C1.5,5.1735 5.1735,1.5 9.75,1.5 C12,1.5 14.0212,2.39625 15.4455,3.8205 L16.5,2.766 C14.774999999999999,1.0394999999999999 12.375,0 9.75,0 zM18.2108,3.21075 L9.75,11.6722 L6.539249999999999,8.4608 L5.46075,9.5392 L9.2108,13.289200000000001 L9.75,13.8045 L10.2892,13.289200000000001 L19.2892,4.28925 L18.2108,3.21075 z" fill="#00BD62" id="svg_1" class=""/></g></svg>