<svg width="12" height="13" viewBox="0 0 12 13" fill="none" xmlns="http://www.w3.org/2000/svg">
<path fill-rule="evenodd" clip-rule="evenodd" d="M3.4845 11.2474C3.44958 11.2125 3.42187 11.1712 3.40296 11.1256C3.38406 11.08 3.37433 11.0312 3.37433 10.9819C3.37433 10.9325 3.38406 10.8837 3.40296 10.8381C3.42187 10.7926 3.44958 10.7512 3.4845 10.7164L7.71975 6.48187L3.4845 2.24737C3.44963 2.21251 3.42198 2.17112 3.40311 2.12556C3.38424 2.08001 3.37452 2.03118 3.37452 1.98187C3.37452 1.93257 3.38424 1.88374 3.40311 1.83819C3.42198 1.79263 3.44963 1.75124 3.4845 1.71637C3.51936 1.68151 3.56076 1.65385 3.60631 1.63498C3.65187 1.61611 3.70069 1.6064 3.75 1.6064C3.79931 1.6064 3.84813 1.61611 3.89369 1.63498C3.93924 1.65385 3.98063 1.68151 4.0155 1.71637L8.5155 6.21637C8.55042 6.25121 8.57813 6.29259 8.59703 6.33815C8.61594 6.38371 8.62567 6.43255 8.62567 6.48187C8.62567 6.5312 8.61594 6.58004 8.59703 6.6256C8.57813 6.67116 8.55042 6.71254 8.5155 6.74737L4.0155 11.2474C3.98066 11.2823 3.93928 11.31 3.89372 11.3289C3.84817 11.3478 3.79932 11.3575 3.75 11.3575C3.70067 11.3575 3.65183 11.3478 3.60627 11.3289C3.56071 11.31 3.51933 11.2823 3.4845 11.2474Z" fill="#121212"/>
</svg>
