<svg width="12" height="13" viewBox="0 0 12 13" fill="none" xmlns="http://www.w3.org/2000/svg">
<path fill-rule="evenodd" clip-rule="evenodd" d="M8.5155 11.2474C8.55042 11.2126 8.57813 11.1712 8.59704 11.1257C8.61594 11.0801 8.62567 11.0313 8.62567 10.9819C8.62567 10.9326 8.61594 10.8838 8.59704 10.8382C8.57813 10.7927 8.55042 10.7513 8.5155 10.7164L4.28025 6.48193L8.5155 2.24743C8.55037 2.21257 8.57802 2.17118 8.59689 2.12562C8.61576 2.08007 8.62548 2.03124 8.62548 1.98193C8.62548 1.93263 8.61576 1.8838 8.59689 1.83825C8.57802 1.79269 8.55037 1.7513 8.5155 1.71643C8.48064 1.68157 8.43924 1.65391 8.39369 1.63504C8.34813 1.61617 8.29931 1.60646 8.25 1.60646C8.20069 1.60646 8.15187 1.61617 8.10631 1.63504C8.06076 1.65391 8.01937 1.68157 7.9845 1.71643L3.4845 6.21643C3.44958 6.25127 3.42187 6.29265 3.40297 6.33821C3.38406 6.38377 3.37433 6.43261 3.37433 6.48193C3.37433 6.53126 3.38406 6.5801 3.40297 6.62566C3.42187 6.67122 3.44958 6.7126 3.4845 6.74743L7.9845 11.2474C8.01934 11.2824 8.06072 11.3101 8.10628 11.329C8.15183 11.3479 8.20068 11.3576 8.25 11.3576C8.29933 11.3576 8.34817 11.3479 8.39373 11.329C8.43929 11.3101 8.48067 11.2824 8.5155 11.2474Z" fill="#121212"/>
</svg>
