<svg width="12" height="13" viewBox="0 0 12 13" fill="none" xmlns="http://www.w3.org/2000/svg">
<path fill-rule="evenodd" clip-rule="evenodd" d="M1.2345 8.99737C1.26933 9.0323 1.31071 9.06 1.35627 9.07891C1.40183 9.09781 1.45067 9.10754 1.5 9.10754C1.54932 9.10754 1.59817 9.09781 1.64372 9.07891C1.68928 9.06 1.73066 9.0323 1.7655 8.99737L6 4.76212L10.2345 8.99737C10.2694 9.03224 10.3108 9.0599 10.3563 9.07877C10.4019 9.09764 10.4507 9.10735 10.5 9.10735C10.5493 9.10735 10.5981 9.09764 10.6437 9.07877C10.6892 9.0599 10.7306 9.03224 10.7655 8.99737C10.8004 8.96251 10.828 8.92112 10.8469 8.87556C10.8658 8.83001 10.8755 8.78118 10.8755 8.73187C10.8755 8.68257 10.8658 8.63374 10.8469 8.58819C10.828 8.54263 10.8004 8.50124 10.7655 8.46637L6.2655 3.96637C6.23066 3.93145 6.18928 3.90374 6.14372 3.88484C6.09817 3.86593 6.04932 3.8562 6 3.8562C5.95067 3.8562 5.90183 3.86593 5.85627 3.88484C5.81072 3.90374 5.76933 3.93145 5.7345 3.96637L1.2345 8.46637C1.19958 8.50121 1.17187 8.54259 1.15296 8.58815C1.13406 8.63371 1.12433 8.68255 1.12433 8.73187C1.12433 8.7812 1.13406 8.83004 1.15296 8.8756C1.17187 8.92116 1.19958 8.96254 1.2345 8.99737Z" fill="#0073BD"/>
</svg>
