<svg width="12" height="13" viewBox="0 0 12 13" fill="none" xmlns="http://www.w3.org/2000/svg">
<path fill-rule="evenodd" clip-rule="evenodd" d="M1.2345 3.96649C1.26933 3.93157 1.31071 3.90386 1.35627 3.88496C1.40183 3.86605 1.45067 3.85632 1.5 3.85632C1.54932 3.85632 1.59817 3.86605 1.64372 3.88496C1.68928 3.90386 1.73066 3.93157 1.7655 3.96649L6 8.20174L10.2345 3.96649C10.2694 3.93163 10.3108 3.90397 10.3563 3.8851C10.4019 3.86623 10.4507 3.85652 10.5 3.85652C10.5493 3.85652 10.5981 3.86623 10.6437 3.8851C10.6892 3.90397 10.7306 3.93163 10.7655 3.96649C10.8004 4.00136 10.828 4.04275 10.8469 4.08831C10.8658 4.13386 10.8755 4.18269 10.8755 4.23199C10.8755 4.2813 10.8658 4.33013 10.8469 4.37568C10.828 4.42124 10.8004 4.46263 10.7655 4.49749L6.2655 8.99749C6.23066 9.03242 6.18928 9.06012 6.14372 9.07903C6.09817 9.09793 6.04932 9.10766 6 9.10766C5.95067 9.10766 5.90183 9.09793 5.85627 9.07903C5.81072 9.06012 5.76933 9.03242 5.7345 8.99749L1.2345 4.49749C1.19958 4.46266 1.17187 4.42128 1.15296 4.37572C1.13406 4.33016 1.12433 4.28132 1.12433 4.23199C1.12433 4.18267 1.13406 4.13383 1.15296 4.08827C1.17187 4.04271 1.19958 4.00133 1.2345 3.96649Z" fill="#121212"/>
</svg>
