<svg xmlns="http://www.w3.org/2000/svg" width="21" height="21" fill="none"><rect id="backgroundrect" width="100%" height="100%" x="0" y="0" fill="none" stroke="none"/>






<g class="currentLayer" style=""><title>Layer 1</title><path d="M12.66674792766571,6.666620037689208 H3.3334179276657103 C3.1566079276657106,6.666620037689208 2.9870379276657104,6.5963900376892095 2.8620079276657107,6.471360037689209 C2.7369879276657105,6.346340037689209 2.6667479276657104,6.176770037689209 2.6667479276657104,5.999960037689209 V3.333290037689209 C2.6667479276657104,3.1564800376892093 2.7369879276657105,2.986910037689209 2.8620079276657107,2.861890037689209 C2.9870379276657104,2.736860037689209 3.1566079276657106,2.666620037689209 3.3334179276657103,2.666620037689209 H12.66674792766571 C12.84354792766571,2.666620037689209 13.01314792766571,2.736860037689209 13.13814792766571,2.861890037689209 C13.26314792766571,2.986910037689209 13.333447927665711,3.1564800376892093 13.333447927665711,3.333290037689209 V5.999960037689209 C13.333447927665711,6.176770037689209 13.26314792766571,6.346340037689209 13.13814792766571,6.471360037689209 C13.01314792766571,6.5963900376892095 12.84354792766571,6.666620037689208 12.66674792766571,6.666620037689208 zM4.000077927665711,5.333290037689209 H12.00004792766571 V3.959960037689209 H4.000077927665711 V5.333290037689209 z" fill="#121212" id="svg_1" class=""/><path d="M12.66674792766571,8.053280037689209 H3.3334179276657103 C3.1566079276657106,8.053280037689209 2.9870379276657104,8.12352003768921 2.8620079276657107,8.248540037689208 C2.7369879276657105,8.373570037689209 2.6667479276657104,8.54313003768921 2.6667479276657104,8.71993003768921 V11.333330037689208 C2.6667479276657104,11.510130037689208 2.7369879276657105,11.67963003768921 2.8620079276657107,11.80473003768921 C2.9870379276657104,11.92973003768921 3.1566079276657106,11.999930037689209 3.3334179276657103,11.999930037689209 H10.90674792766571 L13.333447927665711,9.53333003768921 V8.71993003768921 C13.333447927665711,8.54313003768921 13.26314792766571,8.373570037689209 13.13814792766571,8.248540037689208 C13.01314792766571,8.12352003768921 12.84354792766571,8.053280037689209 12.66674792766571,8.053280037689209 zM12.00004792766571,10.66663003768921 H4.000077927665711 V9.333330037689208 H12.00004792766571 V10.66663003768921 z" fill="#121212" id="svg_2" class=""/><path d="M6.039997927665711,19.673330037689208 V19.63333003768921 L6.253337927665711,18.70663003768921 H1.3333379276657107 V1.3333300376892092 H14.66664792766571 V8.166660037689208 L16.00004792766571,6.906660037689209 V0.6666600376892089 C16.00004792766571,0.4898500376892092 15.929747927665712,0.320280037689209 15.804747927665712,0.19526003768920908 C15.679747927665712,0.07024003768920917 15.51014792766571,3.768920908697737e-8 15.33334792766571,3.768920908697737e-8 H0.6666679276657106 C0.48985792766571046,3.768920908697737e-8 0.32028792766571046,0.07024003768920917 0.19525792766571048,0.19526003768920908 C0.07023792766571046,0.320280037689209 -7.233428955810695e-8,0.4898500376892092 -7.233428955810695e-8,0.6666600376892089 V19.33333003768921 C-7.233428955810695e-8,19.51013003768921 0.07023792766571046,19.679730037689207 0.19525792766571048,19.804730037689207 C0.32028792766571046,19.929730037689207 0.48985792766571046,20.00003003768921 0.6666679276657106,20.00003003768921 H5.99999792766571 C6.0054979276657106,19.89033003768921 6.01885792766571,19.78113003768921 6.039997927665711,19.673330037689208 z" fill="#121212" id="svg_3" class=""/><path d="M13.333447927665711,11.446630037689209 L12.813447927665711,11.973330037689209 C12.942447927665711,11.946730037689209 13.06074792766571,11.88253003768921 13.15324792766571,11.78873003768921 C13.24584792766571,11.69503003768921 13.30854792766571,11.57603003768921 13.333447927665711,11.446630037689209 z" fill="#121212" id="svg_4" class=""/><path d="M2.6667479276657104,16.62663003768921 C2.6667479276657104,16.80343003768921 2.7369879276657105,16.97293003768921 2.8620079276657107,17.09803003768921 C2.9870379276657104,17.22303003768921 3.1566079276657106,17.29323003768921 3.3334179276657103,17.29323003768921 H6.56007792766571 L6.76007792766571,16.426630037689208 L6.84674792766571,16.05993003768921 V16.02663003768921 H4.000077927665711 V14.66663003768921 H8.226747927665711 L9.56004792766571,13.333230037689209 H3.3334179276657103 C3.1566079276657106,13.333230037689209 2.9870379276657104,13.403530037689208 2.8620079276657107,13.528530037689208 C2.7369879276657105,13.653530037689208 2.6667479276657104,13.823130037689209 2.6667479276657104,13.999930037689209 V16.62663003768921 z" fill="#121212" id="svg_5" class=""/><path d="M20.99344792766571,9.779930037689208 L18.74674792766571,7.533310037689208 C18.64704792766571,7.43333003768921 18.52854792766571,7.354000037689209 18.39814792766571,7.29988003768921 C18.26774792766571,7.245750037689209 18.127947927665712,7.217890037689209 17.98674792766571,7.217890037689209 C17.84554792766571,7.217890037689209 17.705747927665712,7.245750037689209 17.57534792766571,7.29988003768921 C17.44484792766571,7.354000037689209 17.32644792766571,7.43333003768921 17.22674792766571,7.533310037689208 L8.08673792766571,16.72663003768921 L7.333397927665711,19.93333003768921 C7.305197927665711,20.07163003768921 7.30456792766571,20.21423003768921 7.33153792766571,20.35273003768921 C7.358507927665711,20.49133003768921 7.412557927665711,20.623230037689208 7.490587927665711,20.74093003768921 C7.568617927665711,20.85863003768921 7.66909792766571,20.95973003768921 7.78626792766571,21.03843003768921 C7.90342792766571,21.117230037689207 8.03498792766571,21.172130037689207 8.173397927665711,21.19993003768921 C8.24211792766571,21.20683003768921 8.31135792766571,21.20683003768921 8.38006792766571,21.19993003768921 C8.46174792766571,21.213330037689207 8.54504792766571,21.213330037689207 8.62673792766571,21.19993003768921 L11.860047927665711,20.48663003768921 L20.99344792766571,11.333330037689208 C21.09314792766571,11.234130037689209 21.17234792766571,11.11623003768921 21.22634792766571,10.986430037689209 C21.280447927665712,10.85653003768921 21.30824792766571,10.717330037689209 21.30824792766571,10.57663003768921 C21.30824792766571,10.436030037689209 21.280447927665712,10.296730037689208 21.22634792766571,10.16683003768921 C21.17234792766571,10.03703003768921 21.09314792766571,9.919130037689209 20.99344792766571,9.81993003768921 V9.779930037689208 zM11.18004792766571,19.27333003768921 L8.740067927665711,19.81333003768921 L9.333447927665711,17.39333003768921 L16.18674792766571,10.466630037689209 L18.06674792766571,12.34663003768921 L11.18004792766571,19.27333003768921 zM18.820047927665712,11.59333003768921 L16.94004792766571,9.713330037689209 L18.00004792766571,8.66663003768921 L19.89344792766571,10.55993003768921 L18.820047927665712,11.59333003768921 z" fill="#121212" id="svg_6" class=""/></g></svg>