<svg width="16" height="15" viewBox="0 0 16 15" fill="none" xmlns="http://www.w3.org/2000/svg">
<path d="M7.99999 0.696899L8.38906 1.89221H9.64062L8.62343 2.62815L9.01249 3.82815L7.99531 3.08752L6.97812 3.82815L7.36718 2.62815L6.34999 1.89221H7.60624L7.99999 0.696899ZM2.83437 2.8344L3.95937 3.40627L4.84531 2.51565L4.64843 3.75784L5.76874 4.32971L4.52656 4.52659L4.32968 5.76877L3.75781 4.64377L2.51562 4.84534L3.40624 3.95471L2.83437 2.8344ZM0.696869 8.00002L1.89218 7.61096V6.3594L2.62812 7.37659L3.82812 6.98752L3.08749 8.00471L3.82812 9.0219L2.62812 8.63284L1.89218 9.65003V8.39377L0.696869 8.00002ZM2.83437 13.1656L3.40624 12.0407L2.51562 11.1547L3.75781 11.3516L4.32968 10.2313L4.52656 11.4735L5.76874 11.6703L4.64374 12.2422L4.84531 13.4844L3.95468 12.5938L2.83437 13.1656ZM7.99999 15.3031L7.61093 14.1078H6.35937L7.37656 13.3719L6.98749 12.1719L8.00468 12.9125L9.02187 12.1719L8.63281 13.3719L9.64999 14.1078H8.39374L7.99999 15.3031ZM13.1656 13.1656L12.0406 12.5938L11.1547 13.4844L11.3516 12.2422L10.2312 11.6703L11.4734 11.4735L11.6703 10.2313L12.2422 11.3563L13.4844 11.1547L12.5937 12.0453L13.1656 13.1656ZM15.3031 8.00002L14.1078 8.38909V9.64065L13.3719 8.62346L12.1719 9.01252L12.9125 7.99534L12.1719 6.97815L13.3719 7.36721L14.1078 6.35002V7.60627L15.3031 8.00002ZM13.1656 2.8344L12.5937 3.9594L13.4844 4.84534L12.2422 4.64846L11.6703 5.76877L11.4734 4.52659L10.2312 4.32971L11.3562 3.75784L11.1547 2.51565L12.0453 3.40627L13.1656 2.8344Z" fill="#FFDA44"/>
</svg>
