<svg width="124" height="21" viewBox="0 0 124 21" fill="none" xmlns="http://www.w3.org/2000/svg">
<path d="M27.3788 18.103C27.1785 18.1655 26.9464 18.2229 26.6851 18.2804C26.4237 18.3379 26.1501 18.3853 25.8643 18.4278C25.5785 18.4678 25.2854 18.5028 24.9898 18.5278C24.6942 18.5528 24.4084 18.5653 24.1372 18.5653C23.485 18.5653 22.9012 18.4678 22.3882 18.2729C21.8752 18.078 21.4429 17.7981 21.0911 17.4333C20.7394 17.0685 20.4707 16.6262 20.285 16.1065C20.0994 15.5867 20.0065 15.0045 20.0065 14.3573C20.0065 13.7002 20.0871 13.1055 20.2484 12.5782C20.4096 12.0485 20.6392 11.5987 20.9421 11.2289C21.245 10.8591 21.6139 10.5767 22.0487 10.3818C22.4859 10.1869 22.9843 10.0895 23.5485 10.0895C23.8588 10.0895 24.1397 10.1195 24.384 10.1819C24.6307 10.2444 24.8799 10.3319 25.129 10.4443V6.77362L27.3739 6.40381V18.103H27.3788ZM22.3003 14.2499C22.3003 14.9595 22.4566 15.5293 22.7669 15.9616C23.0771 16.3938 23.5412 16.6087 24.1543 16.6087C24.3547 16.6087 24.5403 16.6012 24.7113 16.5862C24.8823 16.5712 25.0215 16.5538 25.1339 16.5313V12.3533C24.9922 12.2609 24.809 12.1834 24.5843 12.1235C24.3571 12.061 24.1299 12.031 23.8979 12.031C22.8328 12.031 22.3003 12.7706 22.3003 14.2499Z" fill="#F9F9F9"/>
<path d="M32.3353 10.042C32.9973 10.042 33.5518 10.1195 33.994 10.2744C34.4361 10.4293 34.7903 10.6492 35.0566 10.9365C35.3229 11.2239 35.5109 11.5737 35.6209 11.986C35.7308 12.3983 35.787 12.8556 35.787 13.3578V18.1355C35.4645 18.2079 35.0175 18.2929 34.4459 18.3903C33.8743 18.4878 33.1805 18.5378 32.3671 18.5378C31.8541 18.5378 31.39 18.4903 30.9723 18.3978C30.5546 18.3054 30.1955 18.1529 29.895 17.9431C29.5946 17.7332 29.3625 17.4583 29.2013 17.1185C29.0401 16.7786 28.9594 16.3638 28.9594 15.8691C28.9594 15.3968 29.0523 14.9945 29.2379 14.6672C29.4236 14.3374 29.6727 14.0775 29.983 13.8801C30.2932 13.6852 30.6498 13.5427 31.0529 13.4553C31.4535 13.3678 31.8712 13.3254 32.3036 13.3254C32.5943 13.3254 32.8532 13.3378 33.0804 13.3628C33.3076 13.3878 33.4908 13.4228 33.63 13.4628V13.2479C33.63 12.8581 33.5152 12.5432 33.2831 12.3084C33.0511 12.071 32.6505 11.9535 32.0764 11.9535C31.6953 11.9535 31.3167 11.981 30.9454 12.0385C30.5741 12.096 30.2517 12.1759 29.9805 12.2784L29.6947 10.4293C29.8242 10.3893 29.9878 10.3443 30.1833 10.2994C30.3787 10.2519 30.5937 10.2119 30.8233 10.1769C31.0553 10.1419 31.2972 10.1095 31.5537 10.0845C31.815 10.0545 32.074 10.042 32.3353 10.042ZM32.5161 16.7611C32.736 16.7611 32.9485 16.7561 33.1488 16.7462C33.3491 16.7362 33.5103 16.7212 33.63 16.6987V14.957C33.5396 14.9371 33.4028 14.9171 33.2221 14.8946C33.0413 14.8746 32.8752 14.8646 32.7237 14.8646C32.5137 14.8646 32.3134 14.8771 32.1277 14.9021C31.9421 14.9271 31.7784 14.977 31.6392 15.0495C31.4975 15.122 31.3876 15.2194 31.3069 15.3418C31.2263 15.4643 31.1872 15.6192 31.1872 15.8041C31.1872 16.1639 31.3045 16.4138 31.5414 16.5512C31.7808 16.6937 32.1057 16.7611 32.5161 16.7611Z" fill="#F9F9F9"/>
<path d="M37.7459 8.23798L39.9908 7.86816V10.257H42.6876V12.1685H39.9908V15.0196C39.9908 15.5019 40.0738 15.8892 40.2399 16.1765C40.4061 16.4639 40.7407 16.6088 41.2415 16.6088C41.4833 16.6088 41.73 16.5863 41.9865 16.5388C42.243 16.4939 42.4751 16.4289 42.6876 16.3464L43.0052 18.1356C42.734 18.248 42.4335 18.3454 42.1013 18.4279C41.7691 18.5104 41.3636 18.5503 40.8799 18.5503C40.2668 18.5503 39.7587 18.4654 39.3581 18.2955C38.9551 18.1256 38.635 17.8907 38.3932 17.5858C38.1514 17.2835 37.9828 16.9162 37.8876 16.4839C37.7923 16.0516 37.7434 15.5743 37.7434 15.0496L37.7459 8.23798Z" fill="#F9F9F9"/>
<path d="M47.0579 10.042C47.7199 10.042 48.2744 10.1195 48.7165 10.2744C49.1587 10.4293 49.5129 10.6492 49.7791 10.9365C50.0454 11.2239 50.2335 11.5737 50.3434 11.986C50.4533 12.3983 50.5095 12.8556 50.5095 13.3578V18.1355C50.1871 18.2079 49.74 18.2929 49.1684 18.3903C48.5968 18.4878 47.9031 18.5378 47.0896 18.5378C46.5767 18.5378 46.1125 18.4903 45.6948 18.3978C45.2771 18.3054 44.918 18.1529 44.6176 17.9431C44.3171 17.7332 44.085 17.4583 43.9238 17.1185C43.7626 16.7786 43.682 16.3638 43.682 15.8691C43.682 15.3968 43.7748 14.9945 43.9605 14.6672C44.1461 14.3374 44.3953 14.0775 44.7055 13.8801C45.0157 13.6852 45.3724 13.5427 45.7754 13.4553C46.176 13.3678 46.5938 13.3254 47.0261 13.3254C47.3168 13.3254 47.5757 13.3378 47.8029 13.3628C48.0301 13.3878 48.2133 13.4228 48.3525 13.4628V13.2479C48.3525 12.8581 48.2377 12.5432 48.0057 12.3084C47.7736 12.071 47.373 11.9535 46.7989 11.9535C46.4179 11.9535 46.0392 11.981 45.6679 12.0385C45.2966 12.096 44.9742 12.1759 44.7031 12.2784L44.4172 10.4293C44.5467 10.3893 44.7104 10.3443 44.9058 10.2994C45.1012 10.2519 45.3162 10.2119 45.5458 10.1769C45.7779 10.1419 46.0197 10.1095 46.2762 10.0845C46.5376 10.0545 46.7965 10.042 47.0579 10.042ZM47.2386 16.7611C47.4585 16.7611 47.671 16.7561 47.8713 16.7462C48.0716 16.7362 48.2328 16.7212 48.3525 16.6987V14.957C48.2622 14.9371 48.1254 14.9171 47.9446 14.8946C47.7638 14.8746 47.5977 14.8646 47.4463 14.8646C47.2362 14.8646 47.0359 14.8771 46.8502 14.9021C46.6646 14.9271 46.5009 14.977 46.3617 15.0495C46.22 15.122 46.1101 15.2194 46.0295 15.3418C45.9489 15.4643 45.9098 15.6192 45.9098 15.8041C45.9098 16.1639 46.027 16.4138 46.264 16.5512C46.5034 16.6937 46.8283 16.7611 47.2386 16.7611Z" fill="#F9F9F9"/>
<path d="M55.649 6.40381C56.0716 6.40381 56.4161 6.43629 56.6823 6.50376C56.9486 6.57122 57.122 6.62869 57.2026 6.68117L57.0072 7.54574C56.8973 7.49327 56.7336 7.44079 56.5187 7.38332C56.3037 7.32585 56.0301 7.29836 55.6979 7.29836C55.0041 7.29836 54.5107 7.47827 54.2127 7.83809C53.9171 8.19791 53.7681 8.77263 53.7681 9.56473V10.3968H56.9022V11.2439H53.7681V18.3654H52.7885V9.53225C52.7885 8.49527 53.023 7.71316 53.4896 7.18842C53.9537 6.66618 54.6744 6.40381 55.649 6.40381Z" fill="#F9F9F9"/>
<path d="M60.8178 10.2095C61.3308 10.2095 61.7656 10.2844 62.1223 10.4319C62.4789 10.5818 62.7672 10.7867 62.9895 11.0491C63.2093 11.3114 63.3705 11.6213 63.4707 11.9811C63.5708 12.3409 63.6221 12.7307 63.6221 13.153V18.178C63.522 18.208 63.3754 18.243 63.1849 18.278C62.9943 18.3129 62.772 18.3529 62.5229 18.3929C62.2713 18.4329 61.9928 18.4679 61.6875 18.4929C61.3821 18.5178 61.067 18.5303 60.7445 18.5303C60.3317 18.5303 59.9531 18.4829 59.6062 18.3904C59.2593 18.2979 58.9589 18.1505 58.7024 17.9506C58.4459 17.7507 58.2456 17.4934 58.099 17.181C57.9525 16.8687 57.8816 16.4839 57.8816 16.0316C57.8816 15.5993 57.9622 15.2295 58.1235 14.9221C58.2847 14.6148 58.5094 14.3599 58.8026 14.16C59.0932 13.9601 59.4401 13.8127 59.8432 13.7202C60.2438 13.6278 60.681 13.5828 61.1549 13.5828C61.2966 13.5828 61.4432 13.5903 61.5995 13.6053C61.7559 13.6203 61.9049 13.6403 62.0514 13.6678C62.198 13.6927 62.3226 13.7202 62.4276 13.7452C62.5327 13.7702 62.6059 13.7952 62.645 13.8152V13.3229C62.645 13.0456 62.6255 12.7757 62.584 12.5133C62.5449 12.251 62.4569 12.0161 62.3201 11.8037C62.1833 11.5938 61.9928 11.4239 61.7485 11.2939C61.5018 11.1665 61.1794 11.1015 60.7763 11.1015C60.2047 11.1015 59.7772 11.144 59.4963 11.224C59.2154 11.3064 59.0077 11.3739 58.8783 11.4239L58.7415 10.5443C58.9125 10.4618 59.1763 10.3844 59.5329 10.3144C59.8847 10.247 60.3146 10.2095 60.8178 10.2095ZM60.9082 17.6408C61.2893 17.6408 61.6239 17.6283 61.9098 17.6033C62.1956 17.5783 62.4398 17.5433 62.6401 17.5033V14.6972C62.5302 14.6448 62.3543 14.5923 62.1125 14.5348C61.8707 14.4773 61.5409 14.4499 61.1183 14.4499C60.8765 14.4499 60.6249 14.4674 60.3659 14.5048C60.1045 14.5398 59.8627 14.6173 59.6429 14.7347C59.4206 14.8522 59.2398 15.0146 59.1006 15.2195C58.9589 15.4244 58.8905 15.6967 58.8905 16.0366C58.8905 16.3339 58.9369 16.5863 59.0346 16.7912C59.1299 16.9961 59.2667 17.161 59.4426 17.2835C59.6184 17.4059 59.8285 17.4958 60.0752 17.5533C60.3171 17.6133 60.5955 17.6408 60.9082 17.6408Z" fill="#F9F9F9"/>
<path d="M66.1211 10.6745C66.4118 10.592 66.8051 10.4996 67.2961 10.3971C67.7871 10.2947 68.3904 10.2422 69.1037 10.2422C69.6973 10.2422 70.1907 10.3296 70.5889 10.5046C70.9846 10.6795 71.3022 10.9293 71.5391 11.2517C71.7761 11.5765 71.9446 11.9638 72.0448 12.4161C72.145 12.8684 72.1963 13.3656 72.1963 13.9104V18.3656H71.2167V14.2352C71.2167 13.6705 71.1801 13.1932 71.1043 12.8009C71.0286 12.4111 70.904 12.0913 70.7281 11.8439C70.5523 11.5965 70.3202 11.4191 70.0344 11.3117C69.7486 11.2042 69.3895 11.1492 68.9571 11.1492C68.4955 11.1492 68.0948 11.1742 67.7602 11.2267C67.4231 11.2792 67.2057 11.3242 67.1055 11.3641V18.3631H66.126V10.6745H66.1211Z" fill="#F9F9F9"/>
<path d="M77.0623 10.2095C77.5753 10.2095 78.0101 10.2844 78.3667 10.4319C78.7234 10.5818 79.0116 10.7867 79.2339 11.0491C79.4562 11.3114 79.615 11.6213 79.7151 11.9811C79.8153 12.3409 79.8666 12.7307 79.8666 13.153V18.178C79.7664 18.208 79.6199 18.243 79.4293 18.278C79.2388 18.3129 79.0165 18.3529 78.7673 18.3929C78.5157 18.4329 78.2373 18.4679 77.9319 18.4929C77.6266 18.5178 77.3114 18.5303 76.989 18.5303C76.5762 18.5303 76.1975 18.4829 75.8507 18.3904C75.5038 18.2979 75.2033 18.1505 74.9468 17.9506C74.6904 17.7507 74.49 17.4934 74.3435 17.181C74.1969 16.8687 74.1261 16.4839 74.1261 16.0316C74.1261 15.5993 74.2067 15.2295 74.3679 14.9221C74.5291 14.6148 74.7539 14.3599 75.047 14.16C75.3377 13.9601 75.6846 13.8127 76.0876 13.7202C76.4882 13.6278 76.9255 13.5828 77.3994 13.5828C77.5411 13.5828 77.6876 13.5903 77.844 13.6053C78.0003 13.6203 78.1493 13.6403 78.2959 13.6678C78.4424 13.6927 78.567 13.7202 78.6721 13.7452C78.7771 13.7702 78.8504 13.7952 78.8895 13.8152V13.3229C78.8895 13.0456 78.8699 12.7757 78.8284 12.5133C78.7869 12.251 78.7014 12.0161 78.5646 11.8037C78.4302 11.5938 78.2373 11.4239 77.993 11.2939C77.7463 11.1665 77.4238 11.1015 77.0207 11.1015C76.4491 11.1015 76.0217 11.144 75.7407 11.224C75.4598 11.3064 75.2522 11.3739 75.1227 11.4239L74.9859 10.5443C75.1569 10.4618 75.4207 10.3844 75.7774 10.3144C76.1291 10.247 76.5591 10.2095 77.0623 10.2095ZM77.1527 17.6408C77.5337 17.6408 77.8684 17.6283 78.1542 17.6033C78.44 17.5783 78.6843 17.5433 78.8846 17.5033V14.6972C78.7747 14.6448 78.5988 14.5923 78.3569 14.5348C78.1151 14.4773 77.7853 14.4499 77.3627 14.4499C77.1209 14.4499 76.8693 14.4674 76.6104 14.5048C76.349 14.5398 76.1072 14.6173 75.8873 14.7347C75.665 14.8522 75.4843 15.0146 75.345 15.2195C75.2033 15.4244 75.1349 15.6967 75.1349 16.0366C75.1349 16.3339 75.1813 16.5863 75.2791 16.7912C75.3743 16.9961 75.5111 17.161 75.687 17.2835C75.8629 17.4059 76.073 17.4958 76.3197 17.5533C76.5615 17.6133 76.84 17.6408 77.1527 17.6408Z" fill="#F9F9F9"/>
<path d="M83.2839 10.3969H86.3887V11.244H83.2839V15.4819C83.2839 15.9341 83.3206 16.3015 83.3963 16.5838C83.472 16.8662 83.5795 17.0836 83.7212 17.2385C83.8629 17.3934 84.0314 17.4959 84.2342 17.5458C84.4345 17.5983 84.6568 17.6233 84.8961 17.6233C85.309 17.6233 85.6387 17.5733 85.8904 17.4759C86.142 17.3784 86.3374 17.2885 86.4791 17.206L86.7209 18.0381C86.5792 18.1306 86.3349 18.2355 85.9832 18.3529C85.6314 18.4704 85.2503 18.5304 84.8375 18.5304C84.3563 18.5304 83.9508 18.4654 83.6235 18.3379C83.2961 18.2105 83.0348 18.0156 82.8393 17.7532C82.6439 17.4909 82.5047 17.166 82.4241 16.7737C82.3435 16.3839 82.3044 15.9217 82.3044 15.3869V8.05307L83.2839 7.86816V10.3969Z" fill="#F9F9F9"/>
<path d="M89.4033 7.99081C89.4033 8.22819 89.3325 8.4156 89.1932 8.55303C89.0516 8.69296 88.8806 8.76043 88.6803 8.76043C88.48 8.76043 88.309 8.69046 88.1673 8.55303C88.0256 8.4156 87.9572 8.22819 87.9572 7.99081C87.9572 7.75343 88.0281 7.56602 88.1673 7.42859C88.309 7.28866 88.4775 7.22119 88.6803 7.22119C88.8806 7.22119 89.0516 7.29116 89.1932 7.42859C89.3325 7.56602 89.4033 7.75593 89.4033 7.99081ZM89.1761 18.3656H88.1966V10.3971H89.1761V18.3656Z" fill="#F9F9F9"/>
<path d="M94.9947 18.5357C94.3913 18.5357 93.8588 18.4382 93.3971 18.2433C92.9354 18.0484 92.5519 17.7686 92.2441 17.4038C91.9388 17.0389 91.7043 16.6017 91.543 16.0944C91.3818 15.5847 91.3012 15.0224 91.3012 14.4078C91.3012 13.7806 91.3843 13.2109 91.5504 12.6961C91.7165 12.1814 91.9559 11.7391 92.2661 11.3693C92.5763 10.9995 92.955 10.7146 93.3971 10.5147C93.8392 10.3148 94.3376 10.2148 94.8896 10.2148C95.3122 10.2148 95.7055 10.2498 96.0719 10.3223C96.4383 10.3948 96.7217 10.4872 96.9244 10.5997L96.668 11.4617C96.4676 11.3593 96.2405 11.2768 95.9889 11.2143C95.7373 11.1519 95.4002 11.1219 94.98 11.1219C94.1153 11.1219 93.4606 11.4067 93.0136 11.9765C92.5666 12.5462 92.3418 13.3558 92.3418 14.4053C92.3418 14.8775 92.3931 15.3123 92.4933 15.7071C92.5934 16.1019 92.7571 16.4417 92.9818 16.7241C93.209 17.0065 93.4997 17.2288 93.8563 17.3863C94.213 17.5462 94.6478 17.6262 95.1608 17.6262C95.5834 17.6262 95.9376 17.5762 96.2234 17.4787C96.5092 17.3813 96.7193 17.2963 96.8487 17.2239L97.0588 18.0884C96.878 18.1909 96.5947 18.2908 96.2063 18.3883C95.8203 18.4857 95.4148 18.5357 94.9947 18.5357Z" fill="#F9F9F9"/>
<path d="M100.298 17.6558C100.86 17.6558 101.324 17.5609 101.693 17.371C102.059 17.1811 102.242 16.8612 102.242 16.4064C102.242 16.1915 102.211 16.0066 102.145 15.8517C102.079 15.6968 101.971 15.5594 101.82 15.4344C101.668 15.312 101.47 15.192 101.224 15.0796C100.977 14.9672 100.674 14.8322 100.312 14.6798C100.022 14.5574 99.7458 14.4299 99.4844 14.3025C99.223 14.1751 98.991 14.0251 98.7907 13.8552C98.5903 13.6853 98.4291 13.4829 98.3094 13.2455C98.1897 13.0081 98.1287 12.7208 98.1287 12.3809C98.1287 11.7338 98.3681 11.209 98.8444 10.8092C99.3207 10.4094 99.9778 10.207 100.811 10.207C101.343 10.207 101.783 10.2545 102.13 10.347C102.477 10.4394 102.721 10.5219 102.86 10.5943L102.633 11.4889C102.513 11.4264 102.308 11.344 102.022 11.2415C101.737 11.1391 101.316 11.0866 100.764 11.0866C100.542 11.0866 100.334 11.1091 100.139 11.1566C99.9436 11.204 99.7702 11.274 99.6188 11.374C99.4673 11.4714 99.3476 11.5963 99.2572 11.7438C99.1668 11.8912 99.1229 12.0761 99.1229 12.291C99.1229 12.5084 99.162 12.6933 99.2426 12.8482C99.3232 13.0031 99.4404 13.1406 99.5968 13.258C99.7531 13.3755 99.9436 13.4879 100.168 13.5903C100.393 13.6928 100.652 13.8052 100.945 13.9277C101.246 14.0501 101.536 14.1751 101.812 14.3025C102.088 14.4299 102.333 14.5849 102.543 14.7648C102.753 14.9447 102.924 15.1596 103.056 15.4119C103.185 15.6643 103.251 15.9792 103.251 16.359C103.251 17.0786 102.987 17.6233 102.46 17.9932C101.932 18.363 101.211 18.5479 100.298 18.5479C99.6139 18.5479 99.0911 18.4879 98.7296 18.3705C98.3681 18.253 98.1262 18.1631 98.0065 18.1006L98.263 17.1911C98.2923 17.211 98.3583 17.246 98.4584 17.291C98.5586 17.336 98.6954 17.3885 98.8664 17.4459C99.0374 17.5034 99.2401 17.5509 99.4771 17.5934C99.714 17.6358 99.9876 17.6558 100.298 17.6558Z" fill="#F9F9F9"/>
<path d="M106.537 17.7031C106.537 17.9405 106.464 18.1404 106.32 18.3053C106.173 18.4702 105.97 18.5527 105.709 18.5527C105.447 18.5527 105.245 18.4702 105.098 18.3053C104.952 18.1404 104.881 17.9405 104.881 17.7031C104.881 17.4657 104.954 17.2658 105.098 17.1009C105.245 16.936 105.447 16.8535 105.709 16.8535C105.97 16.8535 106.173 16.936 106.32 17.1009C106.464 17.2658 106.537 17.4657 106.537 17.7031Z" fill="#F9F9F9"/>
<path d="M108.857 10.6745C109.148 10.592 109.541 10.4996 110.032 10.3971C110.523 10.2947 111.127 10.2422 111.84 10.2422C112.434 10.2422 112.927 10.3296 113.325 10.5046C113.721 10.6795 114.038 10.9293 114.275 11.2517C114.512 11.5765 114.681 11.9638 114.781 12.4161C114.881 12.8684 114.932 13.3656 114.932 13.9104V18.3656H113.953V14.2352C113.953 13.6705 113.916 13.1932 113.841 12.8009C113.765 12.4111 113.64 12.0913 113.464 11.8439C113.288 11.5965 113.056 11.4191 112.771 11.3117C112.485 11.2042 112.126 11.1492 111.693 11.1492C111.232 11.1492 110.831 11.1742 110.496 11.2267C110.159 11.2792 109.942 11.3242 109.842 11.3641V18.3631H108.862V10.6745H108.857Z" fill="#F9F9F9"/>
<path d="M119.405 18.5053C119.073 18.4953 118.785 18.4503 118.538 18.3753C118.291 18.2979 118.086 18.1804 117.92 18.0205C117.754 17.8606 117.629 17.6557 117.544 17.4033C117.458 17.151 117.417 16.8361 117.417 16.4563V6.58872L118.396 6.40381V16.4238C118.396 16.6712 118.418 16.8686 118.465 17.0185C118.511 17.1684 118.577 17.2859 118.667 17.3733C118.758 17.4608 118.875 17.5258 119.022 17.5657C119.168 17.6082 119.342 17.6432 119.542 17.6732L119.405 18.5053Z" fill="#F9F9F9"/>
<path d="M124 16.6313C124 16.9186 123.954 17.1735 123.863 17.3959C123.773 17.6183 123.651 17.8082 123.499 17.9631C123.348 18.118 123.172 18.2355 122.972 18.3179C122.771 18.4004 122.561 18.4404 122.344 18.4404C122.126 18.4404 121.916 18.4004 121.716 18.3179C121.516 18.2355 121.34 18.118 121.188 17.9631C121.037 17.8082 120.915 17.6183 120.824 17.3959C120.734 17.1735 120.688 16.9186 120.688 16.6313C120.688 16.3489 120.734 16.094 120.824 15.8691C120.915 15.6442 121.037 15.4543 121.188 15.3019C121.34 15.1495 121.516 15.032 121.716 14.9496C121.916 14.8671 122.126 14.8271 122.344 14.8271C122.561 14.8271 122.771 14.8671 122.972 14.9496C123.172 15.032 123.348 15.1495 123.499 15.3019C123.651 15.4543 123.773 15.6442 123.863 15.8691C123.954 16.094 124 16.3489 124 16.6313ZM123.712 16.6313C123.712 16.4014 123.678 16.1915 123.609 16.0016C123.541 15.8117 123.446 15.6492 123.326 15.5143C123.206 15.3794 123.062 15.2744 122.893 15.202C122.725 15.1295 122.542 15.092 122.344 15.092C122.146 15.092 121.963 15.1295 121.794 15.202C121.626 15.2744 121.482 15.3794 121.362 15.5143C121.242 15.6492 121.147 15.8117 121.079 16.0016C121.01 16.1915 120.976 16.4014 120.976 16.6313C120.976 16.8611 121.01 17.071 121.079 17.2609C121.147 17.4508 121.242 17.6133 121.362 17.7482C121.482 17.8831 121.626 17.9881 121.794 18.063C121.963 18.138 122.146 18.1755 122.344 18.1755C122.542 18.1755 122.725 18.138 122.893 18.063C123.062 17.9881 123.206 17.8831 123.326 17.7482C123.446 17.6133 123.541 17.4508 123.609 17.2609C123.678 17.071 123.712 16.8611 123.712 16.6313ZM122.872 17.6208C122.786 17.4633 122.698 17.3159 122.608 17.1735C122.517 17.0311 122.437 16.9186 122.368 16.8362C122.346 16.8386 122.324 16.8411 122.305 16.8411C122.285 16.8411 122.268 16.8411 122.251 16.8411H121.943V17.6208H121.675V15.6867C121.75 15.6692 121.833 15.6567 121.926 15.6467C122.019 15.6367 122.107 15.6317 122.188 15.6317C122.464 15.6317 122.676 15.6842 122.82 15.7867C122.964 15.8891 123.038 16.0465 123.038 16.2564C123.038 16.3764 123.006 16.4838 122.94 16.5788C122.874 16.6737 122.779 16.7437 122.652 16.7912C122.679 16.8212 122.713 16.8661 122.757 16.9286C122.801 16.9911 122.847 17.0585 122.896 17.136C122.945 17.2135 122.994 17.2934 123.043 17.3809C123.091 17.4683 123.133 17.5483 123.17 17.6208H122.872ZM121.943 16.6163H122.188C122.268 16.6163 122.344 16.6113 122.412 16.6013C122.481 16.5913 122.539 16.5713 122.591 16.5438C122.642 16.5163 122.681 16.4788 122.708 16.4314C122.735 16.3839 122.749 16.3239 122.749 16.2514C122.749 16.1815 122.735 16.1215 122.703 16.074C122.671 16.0266 122.632 15.9866 122.581 15.9566C122.53 15.9266 122.473 15.9041 122.407 15.8916C122.341 15.8791 122.273 15.8716 122.202 15.8716C122.153 15.8716 122.107 15.8716 122.063 15.8741C122.019 15.8766 121.98 15.8791 121.943 15.8816V16.6163Z" fill="#F9F9F9"/>
<path d="M18.3824 4.36V0.481934C17.2587 0.484432 16.2328 0.69183 15.3265 1.07414C15.3216 1.07664 15.3143 1.07914 15.3094 1.08164V12.461V12.4635C15.6709 11.1691 16.7115 10.337 18.1186 10.332V6.60888C17.1073 6.61138 16.179 6.79379 15.3485 7.11863C15.5659 5.46695 16.7311 4.365 18.3824 4.36Z" fill="#F9F9F9"/>
<path d="M11.2225 7.85078C10.4652 6.77131 9.10948 6.07666 7.40443 6.07666C4.56105 6.07666 0.984833 8.2106 0.984833 13.2806C0.984833 17.436 3.96501 20.482 8.18856 20.482C8.67223 20.482 9.13635 20.442 9.58338 20.367V16.2991C9.17544 16.4965 8.70642 16.6064 8.18856 16.6064C6.34671 16.6064 5.1009 15.2496 5.1009 13.2831C5.1009 11.3166 6.34671 9.95973 8.18856 9.95973C9.78124 9.95973 10.9587 11.0517 11.2445 12.6059V7.89076L11.2225 7.85078Z" fill="#F9F9F9"/>
<path d="M12.7151 3.08061C11.8601 4.20255 11.3251 5.65432 11.2445 7.36097V7.36347V7.89071V12.6059V12.9107V19.9172V19.9197C11.8308 19.6723 12.3657 19.3525 12.8396 18.9627C13.57 18.3655 14.1856 17.5334 14.6204 16.6014C15.0552 15.6668 15.3093 14.6324 15.3093 13.6279V12.4634V12.4609V1.0816V1.0791C14.2662 1.52138 13.3844 2.20104 12.7151 3.08061Z" fill="#F9F9F9"/>
</svg>
