<svg width="14" height="14" viewBox="0 0 14 14" fill="none" xmlns="http://www.w3.org/2000/svg">
<path d="M7 9.91663C7.16528 9.91663 7.30391 9.86063 7.41591 9.74863C7.52753 9.63701 7.58333 9.49857 7.58333 9.33329C7.58333 9.16801 7.52753 9.02938 7.41591 8.91738C7.30391 8.80576 7.16528 8.74996 7 8.74996C6.83472 8.74996 6.69628 8.80576 6.58466 8.91738C6.47266 9.02938 6.41666 9.16801 6.41666 9.33329C6.41666 9.49857 6.47266 9.63701 6.58466 9.74863C6.69628 9.86063 6.83472 9.91663 7 9.91663ZM6.41666 7.58329H7.58333V4.08329H6.41666V7.58329ZM7 12.8333C6.19305 12.8333 5.43472 12.6801 4.725 12.3736C4.01528 12.0676 3.39791 11.652 2.87291 11.127C2.34791 10.602 1.93239 9.98468 1.62633 9.27496C1.31989 8.56524 1.16666 7.8069 1.16666 6.99996C1.16666 6.19301 1.31989 5.43468 1.62633 4.72496C1.93239 4.01524 2.34791 3.39788 2.87291 2.87288C3.39791 2.34788 4.01528 1.93215 4.725 1.62571C5.43472 1.31965 6.19305 1.16663 7 1.16663C7.80694 1.16663 8.56527 1.31965 9.275 1.62571C9.98472 1.93215 10.6021 2.34788 11.1271 2.87288C11.6521 3.39788 12.0676 4.01524 12.3737 4.72496C12.6801 5.43468 12.8333 6.19301 12.8333 6.99996C12.8333 7.8069 12.6801 8.56524 12.3737 9.27496C12.0676 9.98468 11.6521 10.602 11.1271 11.127C10.6021 11.652 9.98472 12.0676 9.275 12.3736C8.56527 12.6801 7.80694 12.8333 7 12.8333Z" fill="#B20000"/>
</svg>
