<svg xmlns="http://www.w3.org/2000/svg" width="17" height="19" fill="none"><rect id="backgroundrect" width="100%" height="100%" x="0" y="0" fill="none" stroke="none"/>

<g class="currentLayer" style=""><title>Layer 1</title><path d="M1.8000000817871094,4.714965839980323e-8 C1.3226100817871096,4.714965839980323e-8 0.8647700817871096,0.1896400471496582 0.5272000817871092,0.5272100471496581 C0.18964008178710934,0.8647700471496584 8.178710952932988e-8,1.3226100471496585 8.178710952932988e-8,1.8000000471496582 V17.39996004714966 C8.178710952932988e-8,17.877360047149658 0.18964008178710934,18.335260047149657 0.5272000817871092,18.67276004714966 C0.8647700817871096,19.010360047149657 1.3226100817871096,19.19996004714966 1.8000000817871094,19.19996004714966 H10.19999008178711 C10.67739008178711,19.19996004714966 11.13519008178711,19.010360047149657 11.47279008178711,18.67276004714966 C11.810390081787109,18.335260047149657 11.999990081787109,17.877360047149658 11.999990081787109,17.39996004714966 V15.599960047149658 C11.999990081787109,15.440860047149659 11.936790081787109,15.28826004714966 11.82429008178711,15.175760047149659 C11.71169008178711,15.063260047149658 11.55909008178711,14.99996004714966 11.39999008178711,14.99996004714966 C10.90439008178711,14.99996004714966 10.58759008178711,14.877560047149657 10.372790081787109,14.71676004714966 C10.153190081787109,14.552360047149659 9.986390081787109,14.30636004714966 9.86399008178711,13.969160047149657 C9.60719008178711,13.263560047149657 9.599990081787109,12.328760047149657 9.599990081787109,11.399960047149658 C9.599990081787109,11.321060047149658 9.58439008178711,11.242960047149658 9.554090081787109,11.170060047149658 C9.52389008178711,11.097160047149659 9.479490081787109,11.030960047149659 9.42359008178711,10.975160047149659 L9.08039008178711,10.630760047149659 L7.6247900817871095,9.175160047149658 C7.06439008178711,8.614760047149659 6.899990081787109,8.239160047149658 6.868790081787109,8.029160047149658 C6.84479008178711,7.861160047149658 6.89519008178711,7.748360047149658 7.015190081787109,7.633160047149659 C7.271990081787109,7.387160047149658 7.4555900817871095,7.220360047149658 7.663190081787109,7.169960047149658 C7.78679008178711,7.138800047149658 8.06879008178711,7.117200047149659 8.57519008178711,7.623560047149658 L12.17519008178711,11.223560047149657 C12.28769008178711,11.336260047149658 12.440390081787111,11.399660047149657 12.59959008178711,11.399760047149659 C12.67839008178711,11.399760047149659 12.75649008178711,11.384360047149658 12.82939008178711,11.354160047149659 C12.902190081787108,11.324060047149658 12.96839008178711,11.279860047149658 13.024190081787111,11.224160047149658 C13.079990081787109,11.168460047149658 13.124290081787109,11.102360047149658 13.15449008178711,11.029560047149658 C13.18469008178711,10.956760047149658 13.20029008178711,10.878660047149658 13.20029008178711,10.799860047149659 C13.20039008178711,10.720960047149658 13.18489008178711,10.642960047149659 13.154790081787109,10.570060047149658 C13.124690081787108,10.497160047149658 13.080490081787108,10.430960047149659 13.02479008178711,10.375160047149658 L11.999990081787109,9.351560047149658 V5.648400047149659 L15.07199008178711,8.720360047149658 C15.23929008178711,8.887560047149659 15.37209008178711,9.085960047149658 15.462690081787109,9.304460047149659 C15.553290081787111,9.522960047149658 15.599990081787109,9.757060047149658 15.599990081787109,9.993560047149659 V18.599960047149658 C15.599990081787109,18.75916004714966 15.66319008178711,18.91176004714966 15.775690081787108,19.02426004714966 C15.888290081787108,19.136760047149657 16.040890081787108,19.19996004714966 16.19999008178711,19.19996004714966 C16.35909008178711,19.19996004714966 16.51169008178711,19.136760047149657 16.62429008178711,19.02426004714966 C16.73679008178711,18.91176004714966 16.799990081787108,18.75916004714966 16.799990081787108,18.599960047149658 V9.993560047149659 C16.79979008178711,9.198360047149658 16.48389008178711,8.435660047149659 15.921590081787109,7.873160047149659 L11.999990081787109,3.9516000471496584 V1.8000000471496582 C11.999990081787109,1.3226100471496585 11.810390081787109,0.8647700471496584 11.47279008178711,0.5272100471496581 C11.13519008178711,0.1896400471496582 10.67739008178711,4.714965839980323e-8 10.19999008178711,4.714965839980323e-8 H1.8000000817871094 zM10.79999008178711,4.200000047149659 V8.151560047149658 L9.42479008178711,6.775200047149658 C8.72999008178711,6.081600047149658 8.03999008178711,5.842800047149659 7.378790081787109,6.003600047149659 C7.24889008178711,6.035660047149658 7.12299008178711,6.081940047149658 7.003190081787109,6.141600047149659 C6.46679008178711,5.986210047149658 5.901590081787109,5.957710047149659 5.352270081787109,6.058340047149658 C4.80295008178711,6.158980047149658 4.2845600817871095,6.385990047149658 3.8380800817871092,6.721440047149658 C3.3915900817871094,7.056890047149658 3.0292300817871096,7.491560047149658 2.7796500817871097,7.991160047149659 C2.5300600817871093,8.490760047149658 2.400090081787109,9.041560047149659 2.400000081787109,9.599960047149658 C2.399950081787109,10.295960047149658 2.601620081787109,10.976960047149658 2.98059008178711,11.560660047149659 C3.3595700817871093,12.144360047149657 3.8996100817871096,12.605660047149659 4.53534008178711,12.888860047149658 C5.171070081787109,13.171960047149657 5.87525008178711,13.264760047149657 6.562590081787109,13.156060047149658 C7.249990081787109,13.047260047149658 7.891090081787109,12.741560047149658 8.40839008178711,12.275960047149658 C8.42879008178711,12.969560047149658 8.49839008178711,13.727960047149658 8.73599008178711,14.37956004714966 C8.91359008178711,14.867960047149658 9.196790081787109,15.334760047149658 9.65279008178711,15.67556004714966 L9.65999008178711,15.682760047149657 C9.29459008178711,15.797760047149659 8.97539008178711,16.02616004714966 8.74879008178711,16.335060047149657 C8.522190081787109,16.64386004714966 8.39999008178711,17.01696004714966 8.39999008178711,17.39996004714966 V17.99996004714966 H3.600000081787109 V17.39996004714966 C3.600000081787109,16.92266004714966 3.4103500817871097,16.464760047149657 3.07279008178711,16.12716004714966 C2.7352200817871095,15.78966004714966 2.277390081787109,15.599960047149658 1.8000000817871094,15.599960047149658 H1.2000000817871097 V3.600000047149658 H1.8000000817871094 C2.277390081787109,3.600000047149658 2.7352200817871095,3.4103600471496582 3.07279008178711,3.072790047149658 C3.4103500817871097,2.735230047149658 3.600000081787109,2.277390047149658 3.600000081787109,1.8000000471496582 V1.2000000471496586 H8.39999008178711 V1.8000000471496582 C8.39999008178711,2.277390047149658 8.58959008178711,2.735230047149658 8.92719008178711,3.072790047149658 C9.26479008178711,3.4103600471496582 9.722590081787109,3.600000047149658 10.19999008178711,3.600000047149658 H10.79999008178711 V4.200000047149659 zM10.79999008178711,17.39996004714966 V17.410760047149658 C10.79719008178711,17.568060047149658 10.73269008178711,17.717860047149657 10.620490081787109,17.82806004714966 C10.50829008178711,17.938260047149658 10.35729008178711,18.00006004714966 10.19999008178711,17.99996004714966 H9.599990081787109 V17.39996004714966 C9.599990081787109,17.24086004714966 9.663190081787109,17.088260047149657 9.77569008178711,16.97576004714966 C9.88829008178711,16.86326004714966 10.04089008178711,16.799960047149657 10.19999008178711,16.799960047149657 H10.79999008178711 V17.39996004714966 zM3.600000081787109,9.599960047149658 C3.600000081787109,8.989660047149659 3.83255008178711,8.402260047149658 4.250310081787109,7.957260047149658 C4.668070081787109,7.512360047149658 5.239670081787109,7.243260047149658 5.848800081787109,7.204760047149659 C5.70000008178711,7.4807600471496585 5.62440008178711,7.816760047149659 5.682000081787109,8.204360047149658 C5.767200081787109,8.782760047149658 6.135600081787109,9.383960047149658 6.775190081787109,10.023560047149658 L7.863590081787109,11.111960047149658 C7.551190081787109,11.497060047149658 7.1270900817871095,11.775860047149658 6.64979008178711,11.910060047149658 C6.172390081787109,12.044360047149658 5.66518008178711,12.027460047149658 5.19783008178711,11.861660047149659 C4.730480081787109,11.695960047149658 4.32594008178711,11.389560047149658 4.039820081787109,10.984560047149659 C3.75370008178711,10.57956004714966 3.600050081787109,10.095860047149658 3.600000081787109,9.599960047149658 zM2.400000081787109,1.2000000471496586 V1.8000000471496582 C2.400000081787109,1.9591300471496584 2.3367800817871096,2.1117400471496586 2.2242600817871097,2.2242600471496585 C2.1117400817871097,2.336790047149658 1.9591300817871096,2.400000047149658 1.8000000817871094,2.400000047149658 H1.2000000817871097 V1.8000000471496582 C1.2000000817871097,1.640870047149658 1.2632100817871095,1.4882600471496579 1.3757300817871094,1.375740047149658 C1.4882500817871094,1.2632100471496583 1.6408700817871091,1.2000000471496586 1.8000000817871094,1.2000000471496586 H2.400000081787109 zM1.2000000817871097,16.799960047149657 H1.8000000817871094 C1.9591300817871096,16.799960047149657 2.1117400817871097,16.86326004714966 2.2242600817871097,16.97576004714966 C2.3367800817871096,17.088260047149657 2.400000081787109,17.24086004714966 2.400000081787109,17.39996004714966 V17.99996004714966 H1.8000000817871094 C1.6408700817871091,17.99996004714966 1.4882500817871094,17.936760047149658 1.3757300817871094,17.824260047149657 C1.2632100817871095,17.711760047149657 1.2000000817871097,17.559160047149657 1.2000000817871097,17.39996004714966 V16.799960047149657 zM10.79999008178711,2.400000047149658 H10.19999008178711 C10.04089008178711,2.400000047149658 9.88829008178711,2.336790047149658 9.77569008178711,2.2242600471496585 C9.663190081787109,2.1117400471496586 9.599990081787109,1.9591300471496584 9.599990081787109,1.8000000471496582 V1.2000000471496586 H10.19999008178711 C10.359090081787109,1.2000000471496586 10.51169008178711,1.2632100471496583 10.624290081787109,1.375740047149658 C10.73679008178711,1.4882600471496579 10.79999008178711,1.640870047149658 10.79999008178711,1.8000000471496582 V2.400000047149658 z" fill="#121212" id="svg_1" class=""/></g></svg>