<svg width="24" height="24" viewBox="0 0 24 24" fill="none" xmlns="http://www.w3.org/2000/svg">
<path d="M12 2C10.8674 2 9.76243 2.19337 8.76796 2.55249V3.98895C8.18785 4.20994 7.63536 4.51381 7.13812 4.87293V3.27072C4.07182 4.98343 2 8.24309 2 12C2 17.4972 6.47514 22 12 22C13.5193 22 14.9558 21.6685 16.2265 21.0608L15.674 19.8453C16.1713 19.6243 16.6409 19.3204 17.0829 19.0166L17.663 20.2597C20.2873 18.4641 22 15.4254 22 12.0276C21.9724 6.47514 17.4972 2 12 2ZM16.9724 18.768L15.7293 16.0608L19.1547 8.40884H17.3591L14.8177 14.0718L14.0442 12.3867L15.8398 8.38122H14.0442L13.1326 10.3702L12.2486 8.43646L12.2762 8.38122H12.221H10.4807L9.62431 10.3425L8.74033 8.35359H8.71271V4.23757C9.59668 3.87845 10.5359 3.65746 11.5304 3.60221C11.6685 3.60221 11.8066 3.60221 11.9448 3.60221C11.9448 3.60221 11.9448 3.60221 11.9724 3.60221C11.9724 3.60221 11.9724 3.60221 12 3.60221C16.6409 3.60221 20.3978 7.38674 20.3978 12C20.3978 12.1657 20.3978 12.3315 20.3702 12.4696C20.3702 12.5249 20.3702 12.5525 20.3702 12.6077C20.3702 12.7182 20.3425 12.8287 20.3425 12.9392C20.3425 12.9945 20.3425 13.0497 20.3149 13.0773C20.2873 13.1878 20.2873 13.2983 20.2597 13.4088C20.2597 13.4641 20.232 13.4917 20.232 13.547C20.2044 13.6851 20.1768 13.8232 20.1492 13.9337C20.1492 13.9613 20.1492 13.9613 20.1492 13.989C19.6796 15.9503 18.5193 17.6077 16.9724 18.768ZM14.2928 20.0663C14.1271 20.1215 14.0166 20.1492 13.8785 20.1768C13.8508 20.1768 13.8232 20.1768 13.8232 20.2044C13.7127 20.232 13.5746 20.2597 13.4641 20.2873C13.4365 20.2873 13.4088 20.2873 13.3536 20.3149C13.2431 20.3425 13.1326 20.3425 13.0221 20.3702C12.9945 20.3702 12.9392 20.3702 12.9116 20.3978C12.8011 20.3978 12.6906 20.4254 12.5801 20.4254C12.5525 20.4254 12.4972 20.4254 12.4696 20.4254C12.3315 20.4254 12.1657 20.4254 12 20.4254C7.35912 20.3978 3.57459 16.6409 3.57459 12C3.57459 11.8343 3.57459 11.6685 3.60221 11.5028C3.60221 11.4475 3.60221 11.4199 3.60221 11.3646C3.60221 11.2541 3.62983 11.1436 3.62983 11.0055C3.62983 10.9503 3.62983 10.9227 3.65746 10.8674C3.68508 10.7569 3.68508 10.6188 3.71271 10.5083C3.71271 10.4807 3.71271 10.4254 3.74033 10.3978C4.1547 8.24309 5.39779 6.36464 7.13812 5.14917V16.2818H8.76796H8.79558L9.65193 14.3481L10.5083 16.2818H12.3039H12.3315L13.1878 14.3481L15.5635 19.6243C15.1492 19.7901 14.7348 19.9558 14.2928 20.0663ZM11.3923 10.3702L12.2762 12.3039L11.3923 14.2376L10.5359 12.3039L11.3923 10.3702Z" fill="url(#paint0_linear_27_4903)"/>
<defs>
<linearGradient id="paint0_linear_27_4903" x1="12.319" y1="-7.65104" x2="11.513" y2="34.3856" gradientUnits="userSpaceOnUse">
<stop offset="0.00168269" stop-color="#0073BD"/>
<stop offset="1" stop-color="#00B3D7"/>
</linearGradient>
</defs>
</svg>
