<svg width="100" height="88" viewBox="0 0 100 88" fill="none" xmlns="http://www.w3.org/2000/svg">
<g clip-path="url(#clip0_27_5007)">
<path fill-rule="evenodd" clip-rule="evenodd" d="M65.6333 56.7057V41.6335H73.116L83.6451 48.4213V41.6335H91.0743V56.7591H83.2175L73.7039 50.1317V56.7057H65.6333ZM36.7183 56.7057L46.7664 41.5801H55.1042L64.9385 56.7057H56.3335L54.9439 55.2092H46.4992L45.2699 56.7057H36.7183ZM49.1181 51.2006H52.3784L50.7215 47.9938L49.1181 51.2006ZM10.3153 56.7057V41.6335H18.1187L23.1427 47.3524L28.4874 41.6335H35.9166V56.7591H28.1668V51.254L23.303 55.904L18.0652 51.254V56.7057H10.3153Z" fill="#121212" fill-opacity="0.4"/>
<path fill-rule="evenodd" clip-rule="evenodd" d="M35.4356 65.7917H65.5799C66.542 65.7917 67.3437 66.6469 67.3437 67.6624V85.5673C67.3437 86.6362 66.542 87.4379 65.5799 87.4379H35.4356C34.4736 87.4379 33.6718 86.5828 33.6718 85.5673V67.6624C33.6718 66.5935 34.4736 65.7917 35.4356 65.7917ZM35.7563 67.8227V85.4069H65.3127V67.8227H35.7563Z" fill="#121212" fill-opacity="0.4"/>
<path fill-rule="evenodd" clip-rule="evenodd" d="M36.6649 84.9793L37.7338 83.4828H38.5355L41.4751 80.0621H42.5975L45.8578 75.1984L54.5697 73.9691L55.5318 79.7949L47.9423 78.7259L46.4992 80.169L42.7579 83.5897L43.7199 84.231V84.9793H40.0855L40.4062 83.0552L38.3752 85.0327H36.6649V84.9793ZM41.7958 79.6346H42.4906L44.7889 76.1605L41.7958 79.6346ZM54.9439 73.7553L55.9594 79.7949L59.5404 80.3294L61.2507 79.2604L62.1593 73.9157L59.7541 68.1434L59.6472 68.0899L54.9439 73.7553ZM60.1817 68.3037L60.449 68.4106L61.1972 67.983V69.1054L62.2662 69.533L62.3196 70.014C62.3196 70.1209 62.6403 70.3347 62.6938 70.1744L62.8006 69.6399L64.4575 70.2278L64.2972 71.7243L63.2282 71.564C62.5334 71.4571 62.4265 72.5261 63.0679 72.5795L64.0834 72.6864L63.923 73.9691L62.48 73.9157L60.1817 68.3037ZM59.2731 80.6501L58.2576 83.4293L59.5404 84.3379V85.0327H56.7076L56.1732 81.6656H56.2801L56.2266 81.4518L56.0128 80.2225L59.2731 80.6501ZM55.318 80.1156L48.1026 79.0466L47.0337 80.1156H55.318Z" fill="#121212" fill-opacity="0.4"/>
<path fill-rule="evenodd" clip-rule="evenodd" d="M49.9733 6.99963C74.2384 6.99963 94.0139 26.7752 94.0139 50.9868C94.0139 52.7506 93.907 54.5143 93.6932 56.2246H99.7328C99.8931 54.5143 100 52.7506 100 50.9868C100 23.408 77.4987 0.960083 49.9733 0.960083C22.4479 0.960083 0 23.408 0 50.9334C0 52.6971 0.106895 54.4609 0.267237 56.1712H6.30679C6.093 54.4609 5.9861 52.6971 5.9861 50.9334C5.9861 26.7752 25.7616 6.99963 49.9733 6.99963Z" fill="#121212" fill-opacity="0.4"/>
</g>
<defs>
<clipPath id="clip0_27_5007">
<rect width="100" height="86.5313" fill="white" transform="translate(0 0.960083)"/>
</clipPath>
</defs>
</svg>
