<svg width="100" height="101" viewBox="0 0 100 101" fill="none" xmlns="http://www.w3.org/2000/svg">
<g clip-path="url(#clip0_27_4959)">
<path d="M50.0595 95.332C25.285 95.332 4.98783 74.9353 4.98783 50.1608C4.98783 44.5891 5.98279 39.3158 7.87322 34.341L34.2397 87.3723C34.5381 88.0688 35.0356 88.6658 35.8316 88.6658C36.6276 88.6658 37.125 88.0688 37.4235 87.3723L49.562 60.2099C49.6615 59.9114 49.8605 59.6129 50.159 59.6129C50.4575 59.6129 50.557 59.9114 50.756 60.2099L62.8945 87.3723C63.193 88.0688 63.6905 88.6658 64.4864 88.6658C65.2824 88.6658 65.7799 88.0688 66.0784 87.3723L92.4448 34.341C94.3352 39.3158 95.3302 44.5891 95.3302 50.1608C95.1312 74.9353 74.834 95.332 50.0595 95.332ZM50.0595 39.9127C49.761 39.9127 49.6615 39.6143 49.4625 39.3158L35.3341 7.47705C39.9109 5.78562 44.8857 4.89016 50.0595 4.89016C55.2333 4.89016 60.2081 5.78562 64.7849 7.47705L50.6565 39.3158C50.4575 39.7138 50.358 39.9127 50.0595 39.9127ZM35.6326 72.6469C35.3341 72.6469 35.2346 72.3484 35.0356 72.0499L12.1515 25.8838C16.2309 19.6156 21.7032 14.3423 28.3694 10.6609L44.8857 47.3749C45.0847 47.9719 45.5822 48.1709 46.0797 48.1709H54.0394C54.6363 48.1709 55.0343 48.0714 55.3328 47.3749L71.8491 10.6609C78.4159 14.3423 83.9876 19.6156 88.067 25.8838L64.9839 72.0499C64.8844 72.3484 64.6854 72.6469 64.3869 72.6469C64.0884 72.6469 63.989 72.3484 63.79 72.0499L55.1338 52.3497C54.8353 51.6533 54.4373 51.5538 53.8404 51.5538H45.8807C45.2837 51.5538 44.8857 51.6533 44.5872 52.3497L36.2296 72.0499C36.1301 72.3484 35.9311 72.6469 35.6326 72.6469ZM50.0595 99.9088C77.6199 99.9088 99.8075 77.7212 99.8075 50.1608C99.8075 22.6004 77.6199 0.412842 50.0595 0.412842C22.4991 0.412842 0.311523 22.6004 0.311523 50.1608C0.311523 77.7212 22.4991 99.9088 50.0595 99.9088Z" fill="#121212" fill-opacity="0.4"/>
</g>
<defs>
<clipPath id="clip0_27_4959">
<rect width="100" height="100" fill="white" transform="translate(0 0.225708)"/>
</clipPath>
</defs>
</svg>
