<svg width="84" height="101" viewBox="0 0 84 101" fill="none" xmlns="http://www.w3.org/2000/svg">
<g clip-path="url(#clip0_27_4975)">
<path fill-rule="evenodd" clip-rule="evenodd" d="M80.4964 86.7181V95.3113L75.14 86.7181H71.5951V99.9742H74.4847V91.4192L79.9184 99.8962H83.4633V86.7181H80.4964Z" fill="#121212" fill-opacity="0.4"/>
<path fill-rule="evenodd" clip-rule="evenodd" d="M0.536713 0.225708V83.1141H83.4633V0.225708H42.2692H0.536713Z" fill="#121212" fill-opacity="0.4"/>
<path d="M51.3037 86.4666C50.4003 86.4665 49.5058 86.6445 48.6712 86.9902C47.8366 87.3359 47.0783 87.8427 46.4396 88.4815C45.8008 89.1203 45.2941 89.8787 44.9484 90.7134C44.6027 91.5481 44.4248 92.4427 44.4248 93.3461C44.4248 94.2496 44.6027 95.1441 44.9484 95.9788C45.2941 96.8135 45.8008 97.5719 46.4396 98.2107C47.0783 98.8495 47.8367 99.3563 48.6712 99.702C49.5058 100.048 50.4003 100.226 51.3037 100.226C53.128 100.226 54.8777 99.5008 56.1677 98.2107C57.4577 96.9205 58.1825 95.1707 58.1825 93.3461C58.1825 91.5215 57.4577 89.7717 56.1677 88.4815C54.8777 87.1914 53.1281 86.4666 51.3037 86.4666ZM51.3037 89.3003C52.3769 89.3003 53.4061 89.7266 54.165 90.4853C54.9238 91.244 55.3502 92.2731 55.3502 93.3461C55.3502 94.4191 54.9238 95.4482 54.165 96.2069C53.4061 96.9657 52.3769 97.3919 51.3037 97.3919C50.7723 97.3919 50.2461 97.2873 49.7551 97.084C49.2642 96.8807 48.8181 96.5826 48.4423 96.207C48.0665 95.8313 47.7685 95.3853 47.5651 94.8944C47.3617 94.4035 47.2571 93.8774 47.2571 93.3461C47.2571 92.8148 47.3617 92.2887 47.5651 91.7978C47.7685 91.307 48.0665 90.8609 48.4423 90.4853C48.8181 90.1096 49.2642 89.8115 49.7551 89.6082C50.2461 89.4049 50.7723 89.3003 51.3037 89.3003Z" fill="#121212" fill-opacity="0.4"/>
<path fill-rule="evenodd" clip-rule="evenodd" d="M38.7603 86.7185H31.8234L31.8234 99.9739H34.791V95.2713H36.7944L40.0312 99.9739H43.4606L40.2246 95.1176C41.9023 94.4244 43.0363 92.9181 43.0363 90.9666C43.0363 88.7322 41.2181 86.7185 38.7603 86.7185ZM34.791 89.5295H38.5286C40.409 89.5295 40.5059 92.5743 38.5286 92.5743H34.791V89.5295Z" fill="#121212" fill-opacity="0.4"/>
<path fill-rule="evenodd" clip-rule="evenodd" d="M59.5298 99.9742H69.3557V97.4295H62.5364V94.887H69.3557V92.2665H62.5364V89.5306H69.3557V86.7181H59.5298V99.9742Z" fill="#121212" fill-opacity="0.4"/>
<path d="M7.41561 86.4666C6.51226 86.4665 5.61776 86.6445 4.78317 86.9902C3.94858 87.3359 3.19026 87.8427 2.55149 88.4815C1.91273 89.1203 1.40603 89.8787 1.06033 90.7134C0.714637 91.5481 0.53671 92.4427 0.536713 93.3461C0.536711 94.2496 0.714639 95.1441 1.06034 95.9788C1.40603 96.8135 1.91273 97.5719 2.55149 98.2107C3.19026 98.8495 3.94859 99.3563 4.78317 99.702C5.61776 100.048 6.51226 100.226 7.41561 100.226C8.58007 100.226 9.72547 99.93 10.7445 99.3664C11.7635 98.8028 12.6228 97.9897 13.2418 97.0033L10.8279 95.5205C10.4623 96.094 9.95802 96.5662 9.36159 96.8933C8.76516 97.2204 8.09587 97.3919 7.41561 97.3919C6.8842 97.3919 6.358 97.2873 5.86704 97.084C5.37609 96.8807 4.92999 96.5826 4.55423 96.207C4.17847 95.8313 3.8804 95.3853 3.67704 94.8944C3.47368 94.4035 3.36901 93.8774 3.36902 93.3461C3.36901 92.8148 3.47368 92.2887 3.67704 91.7978C3.8804 91.307 4.17847 90.8609 4.55423 90.4853C4.92999 90.1096 5.37609 89.8115 5.86704 89.6082C6.358 89.4049 6.8842 89.3003 7.41561 89.3003C8.11215 89.3003 8.79691 89.48 9.4036 89.8222C10.0103 90.1643 10.5184 90.6572 10.8787 91.2533L13.2329 89.6747C12.613 88.6922 11.7544 87.8827 10.7372 87.3218C9.71994 86.7608 8.57723 86.4666 7.41561 86.4666Z" fill="#121212" fill-opacity="0.4"/>
<path d="M67.786 84.753C67.786 85.0546 67.6662 85.3437 67.4529 85.557C67.2397 85.7702 66.9505 85.89 66.6489 85.89C66.3474 85.89 66.0582 85.7702 65.8449 85.557C65.6317 85.3437 65.5119 85.0545 65.5119 84.753C65.5119 84.4514 65.6317 84.1622 65.8449 83.949C66.0582 83.7358 66.3474 83.616 66.6489 83.616C66.9505 83.616 67.2397 83.7358 67.4529 83.949C67.6662 84.1622 67.786 84.4514 67.786 84.753Z" fill="#121212" fill-opacity="0.4"/>
<path fill-rule="evenodd" clip-rule="evenodd" d="M19.0689 89.5306H23.192V99.9742H26.3515V89.5306H30.4753V86.7181H19.0689V89.5306Z" fill="#121212" fill-opacity="0.4"/>
<path d="M63.1527 84.753C63.1527 85.0545 63.033 85.3437 62.8197 85.557C62.6065 85.7702 62.3173 85.89 62.0157 85.89C61.7142 85.89 61.425 85.7702 61.2117 85.557C60.9985 85.3437 60.8787 85.0546 60.8787 84.753C60.8787 84.4514 60.9985 84.1622 61.2117 83.949C61.425 83.7358 61.7142 83.616 62.0157 83.616C62.3173 83.616 62.6065 83.7358 62.8197 83.949C63.033 84.1622 63.1527 84.4514 63.1527 84.753Z" fill="#121212" fill-opacity="0.4"/>
<path fill-rule="evenodd" clip-rule="evenodd" d="M14.8304 99.9742H17.8363V86.7181H14.8304V99.9742Z" fill="#121212" fill-opacity="0.4"/>
<path d="M5.46948 51.2067L41.9611 3.07715L78.5305 51.2067L42 21.1879L5.46948 51.2067Z" fill="white"/>
<path d="M41.9992 31.3226L5.46936 79.453L41.9609 49.3952L78.5305 79.453L41.9992 31.3226Z" fill="white"/>
</g>
<defs>
<clipPath id="clip0_27_4975">
<rect width="82.9266" height="100" fill="white" transform="translate(0.536713 0.225708)"/>
</clipPath>
</defs>
</svg>
