<svg width="100" height="77" viewBox="0 0 100 77" fill="none" xmlns="http://www.w3.org/2000/svg">
<g clip-path="url(#clip0_27_4967)">
<path d="M26.2061 0.366821H37.0681V76.0847H26.2061V0.366821ZM72.7701 0.366821V9.50281H81.1913V76.0847H91.7154V9.50281H100V0.366821H72.7701ZM0 76.0847H10.5244V41.7337H19.4876V32.7229H10.5244V9.50281H22.2173V0.366821H0V76.0847ZM74.1653 71.1248C74.1675 72.784 74.1684 74.4374 74.1681 76.0847H64.324C64.3154 73.2203 64.3089 70.3416 64.3045 67.4488C64.2964 64.5605 64.2827 61.6672 64.2515 58.7837C64.1893 53.0225 64.0572 47.2838 63.7561 41.7337H52.178V76.0847H42.7254V0.366821H64.9355C66.2803 2.97163 67.4209 5.67688 68.3471 8.45821C69.3054 11.3326 70.0984 14.2595 70.7224 17.2245C71.3676 20.2388 71.8806 23.347 72.293 26.5095C72.7054 29.6711 73.019 32.9058 73.2613 36.1694C73.5036 39.4313 73.6762 42.7499 73.8017 46.0716C73.9272 49.39 74.0072 52.7555 74.0596 56.0956C74.112 59.4277 74.1382 62.813 74.1522 66.1323C74.1591 67.8007 74.1635 69.4648 74.1653 71.1248ZM63.0855 32.7229C62.2395 24.0654 60.7886 16.0523 58.2761 9.50281H52.178V32.7229H63.0855Z" fill="#121212" fill-opacity="0.4"/>
</g>
<defs>
<clipPath id="clip0_27_4967">
<rect width="100" height="75.7179" fill="white" transform="translate(0 0.366821)"/>
</clipPath>
</defs>
</svg>
