<svg width="100" height="22" viewBox="0 0 100 22" fill="none" xmlns="http://www.w3.org/2000/svg">
<g clip-path="url(#clip0_27_4970)">
<path fill-rule="evenodd" clip-rule="evenodd" d="M10.4925 11.1686L10.9528 10.905L16.7138 14.8547L10.4925 11.1686ZM10.1615 10.9579L9.7333 10.7115L10.2107 3.17285L10.1615 10.9579ZM9.64562 10.9323L7.73651 12.512L10.0241 11.1627L9.64562 10.9323Z" fill="#121212" fill-opacity="0.4"/>
<path fill-rule="evenodd" clip-rule="evenodd" d="M10.2781 0.93811C4.59672 0.93811 -0.00952148 5.54382 -0.00952148 11.2257C-0.00952148 16.9076 4.59672 21.5133 10.2781 21.5133C15.96 21.5133 20.5662 16.9076 20.5662 11.2257C20.5662 5.54382 15.96 0.93811 10.2781 0.93811ZM10.2791 20.9648C7.92844 20.9648 5.7285 20.1811 4.08937 18.7424C2.49462 17.3417 1.25591 15.1161 0.950113 12.7504C1.67505 17.2492 5.57614 20.6857 10.2791 20.6857C15.4981 20.6857 19.729 16.4548 19.729 11.2359C19.729 9.07068 18.9201 6.95039 17.6948 5.35724C18.9362 6.31473 20.0081 9.04181 20.0081 11.2359C20.0081 16.6088 15.652 20.9648 10.2791 20.9648ZM9.38581 10.4928L10.2177 1.96297L10.2781 1.96243H10.2995L10.3813 10.9386L11.813 10.0827L10.3727 1.9635C15.4451 2.01429 19.5424 6.14098 19.5424 11.2257C19.5424 12.8595 19.119 14.3938 18.377 15.7261L11.9471 10.3463L11.3382 10.6916L18.3331 15.8031L18.2797 15.895L10.4133 11.3695V12.9659L18.2257 15.9854C16.6063 18.6831 13.6531 20.489 10.2775 20.489C6.90573 20.489 3.95465 18.6868 2.33477 15.9934L10.1423 12.9493V11.3535L2.26687 15.879L2.21501 15.7892L9.18533 10.6916L8.5764 10.3463L2.16422 15.6978C1.40795 14.3287 1.0124 12.7898 1.0148 11.2257C1.0148 6.18108 5.0474 2.07844 10.0648 1.96457L8.81003 10.1474L9.38581 10.4928ZM10.2781 1.4909C4.90466 1.4909 0.549151 5.84694 0.549151 11.2198C0.549151 13.4021 1.34092 15.4663 2.54861 17.2492C2.95813 18.0153 3.40132 18.4895 3.99261 19.1156C1.67559 17.2647 0.176525 14.4158 0.176525 11.2193C0.176525 5.64058 4.69883 1.11774 10.2781 1.11774C15.8573 1.11774 20.4657 5.83732 20.3 11.2193C20.1599 5.9683 15.5628 1.4909 10.2781 1.4909ZM55.4686 11.9068C55.4686 10.1025 54.6709 8.63978 52.9195 8.63978C51.2938 8.63978 50.3694 10.1025 50.3694 11.9068C50.3694 13.7111 51.1419 15.1738 52.9195 15.1738C54.6458 15.1738 55.1531 14.3185 55.4183 12.9504L54.8233 12.9482C54.773 13.4556 54.4421 14.5986 53.1735 14.6237C51.7263 14.6531 51.6252 12.7959 51.6498 11.9073L51.6749 11.3995C51.6749 10.8413 51.6247 9.19096 52.9698 9.19096C54.0358 9.19096 54.1882 10.5623 54.1882 11.3995H51.6749L51.6498 11.9073H55.4686V11.9068ZM25.4371 6.39172L25.4114 6.79803H25.7921C26.0711 6.79803 26.4272 6.82315 26.4272 7.17867L26.3005 14.0592C26.3005 14.3131 26.1733 14.5922 25.6654 14.5922H25.2847L25.2591 14.9985H27.8231V14.5922H27.3916C27.0613 14.5922 26.833 14.4906 26.833 14.0592L26.9597 7.45828L29.7017 14.5665H29.9808L32.748 7.38183L32.8752 14.0592C32.8752 14.2875 32.6464 14.5922 32.2909 14.5922H31.7579V14.9985H34.9821V14.5922H34.6015C34.3224 14.5922 33.992 14.4398 33.992 14.0843L33.8648 7.28025C33.8648 7.05143 34.1187 6.79803 34.3727 6.79803H34.8549V6.39172H32.5443L30.1577 12.6371L27.7712 6.39172H25.4371ZM43.2964 15.0038V14.674H43.0425C42.8142 14.674 42.4079 14.5975 42.4079 14.1404V10.8146C42.4079 9.7737 42.9409 9.39305 43.4739 9.39305C43.6771 9.39305 43.8043 9.49462 43.753 9.87527C43.7022 10.2559 44.0321 10.5099 44.3117 10.4847C44.5913 10.4596 44.9468 10.4083 44.8955 9.69778C44.8442 8.98727 44.4389 8.65688 43.7279 8.65688C43.1692 8.65688 42.7121 9.0124 42.5854 9.19043C42.4379 9.39733 42.255 9.31713 42.2299 9.08885C42.2048 8.86057 42.1032 8.63229 41.8492 8.70821C41.3635 8.86348 40.8603 8.95724 40.3513 8.98728V9.24122C41.4173 9.19043 41.3162 9.72344 41.3162 9.97738V14.141C41.3162 14.5981 40.9099 14.6745 40.6811 14.6745H40.3256V15.0044H43.2964V15.0038ZM48.9521 9.04341C48.5779 8.77022 48.1075 8.61358 47.5349 8.61358C45.9102 8.61358 44.9853 10.0763 44.9853 11.8811C44.9853 13.6855 45.7573 15.1396 47.5349 15.1482C49.1088 15.1562 49.49 14.2677 49.7546 12.8991L49.1596 12.8964C49.1088 13.4037 48.9313 14.5719 47.7888 14.5975C46.3422 14.6301 46.2406 12.7691 46.2657 11.8811C46.2657 11.3225 46.3422 9.08778 47.5605 9.08778C48.6009 9.08778 49.236 9.82448 49.236 10.6622H49.5659V8.52964H49.2868L48.9521 9.04341ZM85.6807 14.6232C84.2335 14.6526 84.1325 12.7953 84.1571 11.9068H87.9758C87.9758 10.1025 87.1793 8.63978 85.4268 8.63978C83.8021 8.63978 82.8778 10.1025 82.8778 11.9068C82.8778 13.7111 83.6492 15.1738 85.4268 15.1738C87.1531 15.1738 87.6615 14.3185 87.9256 12.9504L87.3316 12.9477C87.2803 13.4556 86.9505 14.5986 85.6807 14.6232ZM85.4781 9.19043C86.5441 9.19043 86.6965 10.5617 86.6965 11.3989H84.1833C84.1833 10.8408 84.1325 9.19043 85.4781 9.19043ZM64.8088 14.6232C63.3616 14.6526 63.2606 12.7953 63.2852 11.9068H67.1039C67.1039 10.1025 66.3063 8.63978 64.5549 8.63978C62.9302 8.63978 62.0048 10.1025 62.0048 11.9068C62.0048 13.7111 62.7773 15.1738 64.5549 15.1738C66.2812 15.1738 66.7885 14.3185 67.0537 12.9504L66.4587 12.9477C66.4084 13.4556 66.0785 14.5986 64.8088 14.6232ZM64.6051 9.19043C65.6722 9.19043 65.8235 10.5617 65.8235 11.3989H63.3103C63.3103 10.8408 63.2606 9.19043 64.6051 9.19043ZM37.8637 14.6232C36.417 14.6526 36.3154 12.7953 36.3406 11.9068H40.1593C40.1593 10.1025 39.3617 8.63978 37.6103 8.63978C35.9851 8.63978 35.0607 10.1025 35.0607 11.9068C35.0607 13.7111 35.8327 15.1738 37.6103 15.1738C39.3366 15.1738 39.8444 14.3185 40.1091 12.9504L39.514 12.9482C39.4633 13.4556 39.1334 14.5986 37.8637 14.6232ZM37.6605 9.19043C38.7271 9.19043 38.8789 10.5617 38.8789 11.3989H36.3657C36.3657 10.8408 36.3154 9.19043 37.6605 9.19043ZM60.9976 13.678V6.59434C60.9976 6.30244 60.8463 6.06079 60.5913 6.13724C60.1058 6.29268 59.6027 6.38644 59.0938 6.41631V6.67025C59.83 6.61947 59.9064 6.84828 59.9064 7.10222V9.28559C59.5765 8.98086 59.1954 8.67613 58.5105 8.67613C57.6471 8.67613 56.0476 9.36151 56.0476 11.7732C56.0476 14.9472 57.9011 15.1498 58.4597 15.1498C59.0184 15.1498 59.7546 14.6932 59.9069 14.4516C59.9192 14.4008 59.9957 14.3372 60.0208 14.4516C60.047 14.6804 60.2117 15.0225 60.4656 14.9466C60.9512 14.7914 61.4542 14.6977 61.9631 14.6676V14.4136C60.8965 14.4649 60.9976 13.9314 60.9976 13.678ZM59.9064 12.9162C59.8813 14.312 59.1451 14.744 58.5357 14.744C57.1649 14.7189 57.2659 12.6371 57.2659 11.748C57.2659 10.859 57.3173 9.10756 58.5608 9.25993C59.8054 9.41229 59.9069 10.7323 59.9069 11.5192V12.9162H59.9064ZM75.901 11.3695V10.7857H72.5506V11.3695H75.901ZM67.9342 12.8456V15.0033H68.2127L68.4667 14.4446C68.7206 14.6734 69.2542 15.0541 69.939 15.0541C70.6249 15.0541 71.5899 14.6734 71.9711 13.9629C72.3512 13.2519 72.1737 12.0838 71.3103 11.7282C70.5543 11.4171 69.8914 11.0445 69.3809 10.7889C69.222 10.7133 69.0918 10.5884 69.0096 10.4328C68.9273 10.2773 68.8974 10.0994 68.9243 9.92553C69.0007 9.51922 69.3557 9.08778 70.1678 9.06212C70.9804 9.037 71.3862 9.72237 71.4888 10.5093H71.7674V8.47886H71.5134L71.2338 8.96108C70.7014 8.60556 70.4725 8.55477 69.9903 8.55477C69.5081 8.55477 68.6955 8.80871 68.2384 9.51975C67.7818 10.2308 67.9085 11.3471 69.0007 11.8047C70.0919 12.2613 70.6003 12.5409 70.9045 12.6932C71.2092 12.8456 71.3867 13.4551 71.1841 13.8106C70.9804 14.1656 70.6003 14.5724 69.9909 14.5724C69.3814 14.5724 68.4175 14.1404 68.1887 12.8461H67.9342V12.8456ZM80.673 10.3521C81.283 10.1998 81.8925 9.1081 81.8925 8.37193C81.8925 7.63577 81.6129 6.39172 79.8353 6.39172H76.0272V6.72158C76.4084 6.72158 77.0681 6.79803 77.0681 7.43261V13.7037C77.0681 14.0592 77.043 14.643 76.0272 14.643V14.9985H79.1504C80.0892 14.9985 82.2474 14.922 82.2988 12.4345C82.2988 11.5962 81.8925 10.6061 80.673 10.3521ZM78.1598 6.79803H79.4295C80.3693 6.79803 80.7495 7.48287 80.7495 8.37193C80.7495 9.46362 80.4196 10.3014 79.4295 10.3014H78.1598V6.79803ZM79.4546 14.5922H78.1598V10.7077H79.607C80.4453 10.7077 81.1814 11.2915 81.1814 12.5606C81.1814 13.8304 80.4191 14.5922 79.4546 14.5922ZM92.6676 10.3832V14.1404C92.6676 14.5975 92.2613 14.674 92.0325 14.674H91.8801V15.0038H94.6473V14.674H94.3934C94.1646 14.674 93.7582 14.5975 93.7582 14.1404V10.4088C93.7331 8.70767 92.21 8.65688 91.677 8.65688C91.1183 8.65688 90.5083 9.0124 90.3821 9.19043C90.2341 9.39733 90.0512 9.31713 90.0261 9.08885C90.001 8.86057 89.8999 8.63229 89.6449 8.70821C89.1594 8.86347 88.6563 8.95723 88.1475 8.98728V9.24122C89.2135 9.19043 89.1124 9.72344 89.1124 9.97738V14.141C89.1124 14.5981 88.7061 14.6745 88.4773 14.6745H88.1223V15.0044H91.0921V14.6745H90.8382C90.6094 14.6745 90.203 14.5981 90.203 14.141V10.8151C90.203 10.257 90.4067 9.36792 91.4476 9.29147C92.4896 9.21556 92.6676 9.90093 92.6676 10.3832ZM95.2359 10.5104L95.693 8.78412H100.009L96.3025 14.6489H98.2822C98.7393 14.6489 99.0948 14.4708 99.577 13.3027H99.7807L99.3744 15.0038H94.9563L98.6382 9.13964H96.9873C96.581 9.13964 96.125 9.13964 95.4899 10.5104H95.2359Z" fill="#121212" fill-opacity="0.4"/>
</g>
<defs>
<clipPath id="clip0_27_4970">
<rect width="100" height="20.6101" fill="white" transform="translate(0 0.920654)"/>
</clipPath>
</defs>
</svg>
