<svg width="200" height="27" viewBox="0 0 200 27" fill="none" xmlns="http://www.w3.org/2000/svg">
<g clip-path="url(#clip0_27_5233)">
<path d="M13.2722 0.228027C11.769 0.228027 10.3025 0.484673 8.98258 0.9613V2.86781C8.21265 3.16112 7.47938 3.56442 6.81943 4.04104V1.91455C2.74977 4.1877 0 8.514 0 13.5003C0 20.7963 5.93951 26.7725 13.2722 26.7725C15.2887 26.7725 17.1952 26.3325 18.8818 25.5259L18.1485 23.9127C18.8084 23.6194 19.4317 23.2161 20.0183 22.8128L20.7883 24.4627C24.2713 22.0795 26.5445 18.0465 26.5445 13.5369C26.5078 6.16753 20.5683 0.228027 13.2722 0.228027ZM19.8717 22.4828L18.2218 18.8898L22.7681 8.73398H20.385L17.0119 16.25L15.9853 14.0135L18.3685 8.69732H15.9853L14.7754 11.3371L13.6022 8.77065L13.6389 8.69732H13.5655H11.2557L10.1192 11.3004L8.94592 8.66066H8.90926V3.19778C10.0825 2.72115 11.3291 2.42784 12.6489 2.35452C12.8323 2.35452 13.0156 2.35452 13.1989 2.35452C13.1989 2.35452 13.1989 2.35452 13.2356 2.35452C13.2356 2.35452 13.2356 2.35452 13.2722 2.35452C19.4317 2.35452 24.418 7.37743 24.418 13.5003C24.418 13.7202 24.418 13.9402 24.3813 14.1235C24.3813 14.1969 24.3813 14.2335 24.3813 14.3069C24.3813 14.4535 24.3446 14.6002 24.3446 14.7468C24.3446 14.8201 24.3446 14.8935 24.308 14.9301C24.2713 15.0768 24.2713 15.2234 24.2346 15.3701C24.2346 15.4434 24.198 15.4801 24.198 15.5534C24.1613 15.7367 24.1247 15.9201 24.088 16.0667C24.088 16.1034 24.088 16.1034 24.088 16.14C23.4647 18.7432 21.9248 20.943 19.8717 22.4828ZM16.3153 24.206C16.0953 24.2794 15.9487 24.316 15.7654 24.3527C15.7287 24.3527 15.692 24.3527 15.692 24.3893C15.5454 24.426 15.3621 24.4627 15.2154 24.4993C15.1787 24.4993 15.1421 24.4993 15.0687 24.536C14.9221 24.5727 14.7754 24.5727 14.6288 24.6093C14.5921 24.6093 14.5188 24.6093 14.4821 24.646C14.3355 24.646 14.1888 24.6827 14.0422 24.6827C14.0055 24.6827 13.9322 24.6827 13.8955 24.6827C13.7122 24.6827 13.4922 24.6827 13.2722 24.6827C7.11274 24.646 2.08983 19.6597 2.08983 13.5003C2.08983 13.2803 2.08983 13.0603 2.12649 12.8403C2.12649 12.767 2.12649 12.7303 2.12649 12.657C2.12649 12.5103 2.16315 12.3637 2.16315 12.1804C2.16315 12.107 2.16315 12.0704 2.19982 11.997C2.23648 11.8504 2.23648 11.6671 2.27314 11.5204C2.27314 11.4838 2.27314 11.4104 2.30981 11.3738C2.85976 8.514 4.50962 6.02088 6.81943 4.40768V19.1831H8.98258H9.01925L10.1558 16.6167L11.2924 19.1831H13.6755H13.7122L14.8488 16.6167L18.0018 23.6194C17.4519 23.8394 16.9019 24.0594 16.3153 24.206ZM12.4656 11.3371L13.6389 13.9036L12.4656 16.47L11.3291 13.9036L12.4656 11.3371Z" fill="white" fill-opacity="0.6"/>
<path d="M40.2566 20.3565L35.1604 14.0137H35.1237V20.3565H31.8973V6.60767H35.1237V12.2172H35.1971L40.11 6.60767H44.253L38.3135 12.9505L44.5829 20.3565H40.2566Z" fill="white" fill-opacity="0.6"/>
<path d="M60.2383 20.3565H56.9386L54.2621 11.044H54.1888L51.4757 20.3565H48.176L44.2896 6.60767H47.846L50.0091 15.7369H50.0825L52.5389 6.60767H55.9853L58.4418 15.7369H58.5151L60.7149 6.60767H64.1613L60.2383 20.3565Z" fill="white" fill-opacity="0.6"/>
<path d="M79.1934 20.3565L78.1302 17.6434H72.8139L71.7874 20.3565H68.1577L73.9138 6.60767H77.1402L82.8598 20.3565H79.1934ZM75.4904 10.274L73.7305 15.0036H77.1769L75.4904 10.274Z" fill="white" fill-opacity="0.6"/>
<path d="M94.9221 17.4234C94.6288 18.12 94.2621 18.67 93.7122 19.1833C93.1989 19.6599 92.5756 20.0632 91.8423 20.3199C91.1091 20.5765 90.3025 20.7232 89.4225 20.7232C88.506 20.7232 87.6994 20.5765 86.9661 20.3199C86.2328 20.0632 85.6095 19.6599 85.1329 19.1833C84.6196 18.7067 84.253 18.12 83.9597 17.4234C83.703 16.7268 83.5564 15.9936 83.5564 15.1503V6.60767H86.8561V14.8936C86.8561 15.2603 86.8928 15.6269 87.0027 15.9569C87.1127 16.2869 87.2594 16.5802 87.4427 16.8735C87.626 17.1301 87.9193 17.3501 88.2493 17.4968C88.5793 17.6434 88.9826 17.7167 89.4592 17.7167C89.9358 17.7167 90.3391 17.6434 90.6691 17.4968C90.9991 17.3501 91.2557 17.1301 91.4757 16.8735C91.6957 16.6168 91.8423 16.3235 91.9157 15.9569C91.989 15.6269 92.0623 15.2603 92.0623 14.8936V6.60767H95.3987V15.187C95.3254 15.9936 95.1787 16.7635 94.9221 17.4234Z" fill="white" fill-opacity="0.6"/>
<path d="M103.905 9.43076V20.3565H100.568V9.43076H96.6819V6.60767H107.754V9.43076H103.905Z" fill="white" fill-opacity="0.6"/>
<path d="M123.043 13.427C123.043 14.5269 122.86 15.5169 122.493 16.3968C122.126 17.3134 121.613 18.0833 120.917 18.7066C120.257 19.3299 119.45 19.8432 118.533 20.2098C117.617 20.5764 116.627 20.7231 115.527 20.7231C114.464 20.7231 113.474 20.5398 112.557 20.2098C111.641 19.8432 110.871 19.3665 110.174 18.7066C109.514 18.0833 109.001 17.3134 108.598 16.3968C108.231 15.4802 108.048 14.4903 108.048 13.427C108.048 12.3271 108.231 11.3372 108.598 10.4573C108.964 9.57736 109.478 8.80742 110.174 8.18414C110.834 7.56086 111.641 7.08423 112.557 6.75426C113.474 6.42428 114.464 6.24097 115.527 6.24097C116.59 6.24097 117.58 6.42428 118.533 6.75426C119.45 7.08423 120.257 7.56086 120.917 8.18414C121.577 8.80742 122.09 9.57736 122.493 10.4573C122.86 11.3372 123.043 12.3271 123.043 13.427ZM119.487 13.427C119.487 12.8404 119.377 12.2905 119.193 11.7405C119.01 11.2272 118.717 10.7873 118.387 10.4206C118.057 10.054 117.617 9.76067 117.14 9.54069C116.664 9.32071 116.114 9.21072 115.527 9.21072C114.94 9.21072 114.427 9.32071 113.951 9.54069C113.474 9.76067 113.071 10.054 112.704 10.4206C112.337 10.7873 112.081 11.2272 111.897 11.7405C111.714 12.2538 111.604 12.8038 111.604 13.427C111.604 14.0503 111.714 14.6369 111.897 15.1502C112.081 15.6635 112.374 16.1401 112.704 16.5068C113.034 16.8734 113.474 17.1667 113.951 17.3867C114.427 17.6067 114.977 17.7167 115.527 17.7167C116.077 17.7167 116.627 17.6067 117.104 17.3867C117.58 17.1667 117.983 16.8734 118.35 16.5068C118.717 16.1401 118.973 15.6635 119.157 15.1502C119.377 14.6369 119.487 14.0503 119.487 13.427Z" fill="white" fill-opacity="0.6"/>
<path d="M137.709 20.3565L137.782 10.6407H137.709L134.152 20.3565H131.806L128.323 10.6407H128.249L128.323 20.3565H125.206V6.60767H129.936L133.052 15.4069H133.126L136.132 6.60767H140.935V20.3565H137.709Z" fill="white" fill-opacity="0.6"/>
<path d="M158.094 13.427C158.094 14.5269 157.91 15.5169 157.544 16.3968C157.177 17.3134 156.664 18.0833 155.967 18.7066C155.307 19.3299 154.5 19.8432 153.584 20.2098C152.667 20.5764 151.677 20.7231 150.577 20.7231C149.514 20.7231 148.524 20.5398 147.608 20.2098C146.691 19.8432 145.921 19.3665 145.225 18.7066C144.565 18.0833 144.051 17.3134 143.648 16.3968C143.281 15.4802 143.098 14.4903 143.098 13.427C143.098 12.3271 143.281 11.3372 143.648 10.4573C144.015 9.57736 144.528 8.80742 145.225 8.18414C145.885 7.56086 146.691 7.08423 147.608 6.75426C148.524 6.42428 149.514 6.24097 150.577 6.24097C151.641 6.24097 152.631 6.42428 153.584 6.75426C154.5 7.08423 155.307 7.56086 155.967 8.18414C156.627 8.80742 157.14 9.57736 157.544 10.4573C157.91 11.3372 158.094 12.3271 158.094 13.427ZM154.537 13.427C154.537 12.8404 154.427 12.2905 154.244 11.7405C154.061 11.2272 153.767 10.7873 153.437 10.4206C153.107 10.054 152.667 9.76067 152.191 9.54069C151.714 9.32071 151.164 9.21072 150.577 9.21072C149.991 9.21072 149.478 9.32071 149.001 9.54069C148.524 9.76067 148.121 10.054 147.754 10.4206C147.388 10.7873 147.131 11.2272 146.948 11.7405C146.764 12.2538 146.654 12.8038 146.654 13.427C146.654 14.0503 146.764 14.6369 146.948 15.1502C147.131 15.6635 147.424 16.1401 147.754 16.5068C148.084 16.8734 148.524 17.1667 149.001 17.3867C149.478 17.6067 150.028 17.7167 150.577 17.7167C151.127 17.7167 151.677 17.6067 152.154 17.3867C152.631 17.1667 153.034 16.8734 153.401 16.5068C153.767 16.1401 154.024 15.6635 154.207 15.1502C154.464 14.6369 154.537 14.0503 154.537 13.427Z" fill="white" fill-opacity="0.6"/>
<path d="M165.61 9.43076V20.3565H162.273V9.43076H158.387V6.60767H169.459V9.43076H165.61Z" fill="white" fill-opacity="0.6"/>
<path d="M170.999 20.3565V6.60767H174.335V20.3565H170.999Z" fill="white" fill-opacity="0.6"/>
<path d="M183.978 20.3565H180.642L175.435 6.60767H179.175L182.365 16.3602H182.438L185.591 6.60767H189.258L183.978 20.3565Z" fill="white" fill-opacity="0.6"/>
<path d="M190.431 20.3565V6.60767H199.67V9.3941H193.621V11.9972H199.34V14.6737H193.621V17.5334H200V20.3565H190.431Z" fill="white" fill-opacity="0.6"/>
</g>
<defs>
<clipPath id="clip0_27_5233">
<rect width="200" height="26.5078" fill="white" transform="translate(0 0.228027)"/>
</clipPath>
</defs>
</svg>
