<svg width="100" height="101" viewBox="0 0 100 101" fill="none" xmlns="http://www.w3.org/2000/svg">
<path fill-rule="evenodd" clip-rule="evenodd" d="M87.4482 89.3335V88.3999H11.5664V89.3335H87.4482Z" fill="#121212" fill-opacity="0.4"/>
<path fill-rule="evenodd" clip-rule="evenodd" d="M8.81742 70.2465H1.45227V71.3875H2.38588C2.64522 71.3875 3.00829 71.7506 3.00829 72.0099V74.8108H7.52074V71.3875H8.81742V70.2465Z" fill="#121212" fill-opacity="0.4"/>
<path fill-rule="evenodd" clip-rule="evenodd" d="M30.6535 85.4954V80.9311H28.2158V82.9021C28.2158 83.5763 27.9046 84.3543 27.334 84.3543H24.6888C24.4295 84.3543 24.0664 84.0431 24.0664 83.7838V78.6489C24.0664 78.3896 24.2739 78.234 24.4813 78.234H25.2593C25.5187 78.234 25.8817 78.5971 25.8817 78.8564V79.8419H28.112V75.2257H25.9336V76.1593C25.9336 76.4187 25.5187 76.8336 25.3112 76.8336H24.5332C24.2739 76.8336 24.1183 76.5743 24.1183 76.3149V71.9062C24.1183 71.6469 24.4813 71.3875 24.7407 71.3875H27.334C27.6452 71.3875 27.9564 71.6987 27.9564 72.0099V74.1365H30.2386V70.2465H17.9979V71.3875H18.9315C19.1909 71.3875 19.5539 71.7506 19.5539 72.0099V83.7838C19.5539 84.0431 19.1909 84.3025 18.9315 84.3025H17.9979V85.4436H30.6535V85.4954Z" fill="#121212" fill-opacity="0.4"/>
<path fill-rule="evenodd" clip-rule="evenodd" d="M35.2178 76.1075L40.249 85.4954H44.7095V71.9581C44.7095 71.6987 45.0726 71.3875 45.3319 71.3875H46.2656V70.2465H41.2863V71.3875H42.2199C42.4793 71.3875 42.8423 71.6987 42.8423 71.9581V79.8938L37.3444 70.2465H31.7427V71.3875H32.6763C32.9357 71.3875 33.2988 71.7506 33.2988 72.0099V83.7838C33.2988 84.0431 32.9357 84.3543 32.6763 84.3543H31.7427V85.4954H36.722V84.3543H35.7884C35.529 84.3543 35.166 84.0431 35.166 83.7838V76.1075H35.2178Z" fill="#121212" fill-opacity="0.4"/>
<path fill-rule="evenodd" clip-rule="evenodd" d="M49.7407 75.7961L47.251 83.8874C47.1473 84.1468 46.9917 84.4061 46.7842 84.4061H45.7988V85.5472H50.4668V84.4061H49.5332C49.2739 84.4061 49.0145 84.1468 49.1183 83.8874L50.1037 80.3086C50.1037 80.2049 50.2075 80.153 50.2593 80.153H52.1266V78.7526H50.778C50.6743 78.7526 50.5705 78.6488 50.6224 78.5451L51.4004 75.848H49.7407V75.7961Z" fill="#121212" fill-opacity="0.4"/>
<path fill-rule="evenodd" clip-rule="evenodd" d="M52.1784 80.1012H53.9419C54.0456 80.1012 54.0975 80.205 54.1494 80.2568L55.1348 83.8357C55.1867 84.095 54.9274 84.3543 54.7199 84.3543H53.7863V85.4954H61.4108V84.3543H60.4253C60.166 84.3543 60.0622 84.095 59.9585 83.8357L55.9647 70.2465H49.222V71.3875H50C50.7261 71.3875 50.9855 71.9062 50.8299 72.4249L49.7925 75.7963H51.4523L52.1784 73.2548L53.6826 78.5452C53.7344 78.6489 53.5788 78.7527 53.4751 78.7527H52.2303V80.1012H52.1784Z" fill="#121212" fill-opacity="0.4"/>
<path fill-rule="evenodd" clip-rule="evenodd" d="M72.8215 81.9685V72.0618C72.8215 71.8025 73.1846 71.4394 73.4439 71.4394H74.3775V70.2465H69.7614V71.3875H70.695C70.9543 71.3875 71.3174 71.8025 71.3174 72.0099V81.9685C71.2655 84.7174 66.39 84.9767 66.3381 81.8647V72.0099C66.3381 71.7506 66.7012 71.3875 66.9605 71.3875H67.8941V70.2465H60.3215V71.3875H61.2551C61.5145 71.3875 61.8775 71.7506 61.8775 72.0099V81.9685C61.7738 86.9477 72.8215 87.207 72.8215 81.9685Z" fill="#121212" fill-opacity="0.4"/>
<path fill-rule="evenodd" clip-rule="evenodd" d="M81.5353 72.0618C81.5353 71.8025 81.8983 71.4394 82.1577 71.4394H83.0913V70.2465H75.4668V71.3875H76.4004C76.6597 71.3875 77.0228 71.7506 77.0228 72.0099V83.7838C77.0228 84.0431 76.6597 84.3543 76.4004 84.3543H75.6224V85.4954H87.4481V80.8792H85.0104V82.8502C85.0104 83.5245 84.6992 84.3543 84.1286 84.3543H82.1577C81.8983 84.3543 81.5353 83.9913 81.5353 83.7838V72.0618Z" fill="#121212" fill-opacity="0.4"/>
<path fill-rule="evenodd" clip-rule="evenodd" d="M92.168 85.4954H95.9543V84.3543H95.0207C94.7614 84.3543 94.3983 83.9913 94.3983 83.7838V71.6987C94.3983 71.5431 94.502 71.4394 94.6576 71.4394C95.7468 71.4913 96.2655 71.8543 96.2655 73.3585V74.7589H98.4958V70.2465H92.168H85.8402V74.7589H88.0705V73.3585C88.0705 71.8543 88.5373 71.4913 89.6784 71.4394C89.834 71.4394 89.9377 71.5431 89.9377 71.6987V83.7838C89.9377 84.0431 89.5746 84.3543 89.3153 84.3543H88.3817V85.4954H92.168Z" fill="#121212" fill-opacity="0.4"/>
<path fill-rule="evenodd" clip-rule="evenodd" d="M7.98755 78.1303C8.19502 78.1303 8.45436 78.3377 8.55809 78.4933L11.6183 85.4954H16.9087V84.3543H16.5456C16.2344 84.3543 16.0788 83.9394 15.8714 83.6282L12.6556 77.9747C14.6266 77.9747 15.612 76.4187 15.612 74.3958C15.612 72.3211 14.6784 70.2465 12.2407 70.2465H8.81743V71.3875H9.23237C11.3589 71.3875 11.4108 76.9373 9.23237 76.9373H7.52075V74.8108H3.0083V83.7838C3.0083 84.0431 2.64523 84.3025 2.38589 84.3025H1.50415V85.4436H9.07677V84.3025H8.14315C7.88382 84.3025 7.52075 83.9913 7.52075 83.7319V78.0265L7.98755 78.1303Z" fill="#121212" fill-opacity="0.4"/>
<path fill-rule="evenodd" clip-rule="evenodd" d="M50.3112 50.6406L45.6432 58.68C45.4876 58.9394 45.1245 58.7319 45.2282 58.4726L49.1183 49.6033L41.3901 36.2215H30.8091C30.8091 36.3771 30.9129 36.5327 30.9129 36.5846L44.4502 60.0804C44.554 60.1842 44.7096 60.3916 44.917 60.3916H54.9793C55.1867 60.3916 55.3423 60.236 55.3942 60.1842L68.9834 36.6365C69.0353 36.5846 69.139 36.3771 69.2427 36.0659H58.7137L50 51.1593L50.3112 50.6406Z" fill="#121212" fill-opacity="0.4"/>
<path fill-rule="evenodd" clip-rule="evenodd" d="M57.2096 36.1178H69.139C69.3465 36.1178 69.4502 35.9622 69.5021 35.8066C69.5021 35.4954 69.4502 35.1842 69.2946 34.9248L55.7054 11.429C55.5498 11.1697 55.2905 11.0659 54.9793 11.0659H45.0208C44.7614 11.0659 44.4502 11.1697 44.2946 11.429L30.8091 34.9248C30.6535 35.236 30.5498 35.5991 30.5498 35.9103C30.5498 36.1178 30.7054 36.2734 30.861 36.2734H42.8942L49.7925 48.151C49.8963 48.3066 50.1037 48.3584 50.2593 48.2547C50.3112 48.2028 50.3631 48.2029 50.3631 48.151L57.2096 36.1178C57.1577 36.1697 57.2096 36.1697 57.2096 36.1178ZM56.5353 35.8584L49.9481 47.2692L43.4129 35.9103L50 24.4995L56.5353 35.8584ZM42.7905 35.5991H31.2241C31.2759 35.4954 31.2759 35.3398 31.3797 35.236L44.8652 11.7921L44.917 11.7402C44.9689 11.7402 44.9689 11.7402 45.0208 11.7402C45.0726 11.7402 55.0311 11.7402 55.0311 11.7402H55.083L68.6722 35.236C68.7241 35.2879 68.7241 35.3398 68.776 35.4435H57.1577L50.3112 23.6178C50.2075 23.4622 50 23.4103 49.8444 23.5141C49.7925 23.5659 49.7407 23.5659 49.7407 23.6178L42.7905 35.5991Z" fill="#121212" fill-opacity="0.4"/>
<path fill-rule="evenodd" clip-rule="evenodd" d="M41.2863 35.6509H43.1017L50 23.7733L56.7428 35.5472H58.61L50.8818 22.1655L54.7718 13.2962C54.8755 13.0368 54.4606 12.8812 54.305 13.0887L41.2863 35.6509Z" fill="#121212" fill-opacity="0.4"/>
<path fill-rule="evenodd" clip-rule="evenodd" d="M44.2427 60.1841C44.3983 60.4435 44.6577 60.5991 44.9689 60.6509H55.0311C55.2905 60.6509 55.6017 60.4953 55.7054 60.2879L69.2946 36.7401C69.3465 36.6364 69.3983 36.2215 69.3983 36.014L68.7241 35.9621L68.6722 36.3771V36.4808L55.1349 59.9248C55.083 59.9767 55.0311 59.9767 54.9793 59.9767H45.0207C44.9689 59.9767 44.8651 59.9248 44.8651 59.8729L31.2759 36.4289C31.2759 36.3771 31.1722 36.2215 31.1722 36.1696C31.1722 35.9621 30.9647 35.8584 30.8091 35.8584C30.6017 35.8584 30.4979 36.0659 30.4979 36.2215C30.4979 36.2733 30.5498 36.3771 30.5498 36.4808L30.6535 36.7401L44.2427 60.1841Z" fill="#121212" fill-opacity="0.4"/>
</svg>
