<svg width="100" height="23" viewBox="0 0 100 23" fill="none" xmlns="http://www.w3.org/2000/svg">
<g clip-path="url(#clip0_27_4989)">
<path fill-rule="evenodd" clip-rule="evenodd" d="M88.3957 5.46887C90.0278 5.55944 91.2058 6.73804 91.3875 8.27952C91.4781 9.09525 91.4781 10.3644 91.4781 11.1801C91.4781 12.1776 91.4781 12.9933 91.3875 13.8091C91.1152 15.7134 89.7555 16.8014 88.3957 16.8014H87.3077H86.0379C84.7688 16.8014 83.3178 15.7134 83.0461 13.8091C82.9556 12.9933 82.9556 12.177 82.9556 11.2707C82.9556 10.3644 82.9556 9.09525 83.0461 8.27893C83.2273 6.73745 84.4964 5.55885 86.1285 5.46828C86.4908 5.37771 86.7631 5.37771 87.2165 5.37771L88.3957 5.46887ZM87.4882 0.210449C89.2109 0.210449 90.8429 0.30102 92.2032 0.482161C96.0107 0.935606 99.0937 3.9274 99.7277 7.64493C99.8183 8.27952 100 9.72983 100 11.1807C100 12.7222 99.8183 14.1725 99.7277 14.7165C99.0937 18.5247 96.0107 21.4259 92.2032 21.9699C90.8429 22.0605 89.2109 22.2416 87.4882 22.2416H86.9442C85.131 22.2416 83.5901 22.0605 82.1392 21.9699C78.3317 21.4259 75.3399 18.5247 74.7048 14.7165C74.6142 14.1725 74.433 12.7222 74.433 11.1807C74.433 9.73042 74.6142 8.28011 74.7048 7.64493C75.3393 3.9274 78.3317 0.936198 82.1392 0.482161C83.5901 0.30102 85.1316 0.210449 86.8536 0.210449H87.4882Z" fill="#121212" fill-opacity="0.4"/>
<path fill-rule="evenodd" clip-rule="evenodd" d="M54.7597 11.1801C54.7597 10.0015 54.8503 8.82353 55.122 7.64434C55.7566 3.9268 58.7484 0.935606 62.5565 0.481569C63.9168 0.30102 65.5488 0.210449 67.2709 0.210449C69.1752 0.210449 70.8978 0.30102 72.3481 0.482161C72.8922 0.572732 73.2544 1.02618 73.2544 1.57019V4.83369C73.2544 5.46828 72.801 5.92172 72.257 5.92172C72.257 5.92172 70.5344 5.83056 69.6281 5.83056C68.54 5.83056 67.6337 5.83056 66.6357 5.92172C65.0042 6.01229 63.8256 7.1909 63.6439 8.73237C63.5533 9.5481 63.4622 10.3644 63.4622 11.1801V11.2707C63.4622 12.087 63.5527 12.9028 63.6439 13.7185C63.8256 15.26 64.9137 16.4386 66.6357 16.6197C67.5426 16.7103 68.6306 16.8014 69.6281 16.8014C70.5344 16.8014 72.257 16.7109 72.257 16.7109C72.801 16.7109 73.2544 17.1643 73.2544 17.7989V21.063C73.2544 21.607 72.8922 22.0605 72.3481 22.151C70.8978 22.151 69.1752 22.241 67.2709 22.241C65.5488 22.241 63.9168 22.0599 62.5565 21.9693C58.7484 21.4253 55.7571 18.5241 55.122 14.716C54.8503 13.6285 54.7597 12.4499 54.7597 11.2713C54.7597 7.55377 54.7597 14.8983 54.7597 11.1801Z" fill="#121212" fill-opacity="0.4"/>
<path fill-rule="evenodd" clip-rule="evenodd" d="M52.3125 16.5292C52.9465 16.5292 53.3999 17.0732 53.3999 17.6172V20.8813C53.3999 21.5159 52.9465 21.9693 52.3125 21.9693H39.3473C36.9901 21.9693 35.0863 20.0656 35.0863 17.7084V4.83433C35.0863 2.47771 36.9901 0.573364 39.3473 0.573364H52.3119C52.9459 0.573364 53.3994 1.02681 53.3994 1.57082V4.74376C53.3994 5.37893 52.9459 5.83179 52.3119 5.83179H44.334C43.6994 5.83179 43.246 6.19466 43.246 6.82925V8.82417L50.0459 8.7336C50.5893 8.7336 51.1333 9.27761 51.1333 9.82163V12.5417C51.1333 13.1763 50.5893 13.6297 50.0459 13.6297H43.246V15.4429C43.246 16.0775 43.6994 16.531 44.334 16.531H52.3125V16.5292Z" fill="#121212" fill-opacity="0.4"/>
<path fill-rule="evenodd" clip-rule="evenodd" d="M19.3111 21.9693C17.4073 21.9693 15.7753 20.6996 15.2313 18.977L10.7892 1.84254C10.7892 1.75197 10.7892 1.6614 10.7892 1.57082C10.7892 1.02681 11.2426 0.573364 11.8772 0.573364H18.4953C19.0394 0.573364 19.4928 0.936239 19.5828 1.38909L23.028 15.714C23.028 15.8958 23.2098 16.0763 23.4815 16.0763C23.6626 16.0763 23.8438 15.8952 23.8438 15.714L27.3796 1.38909C27.4701 0.935647 27.9236 0.573364 28.377 0.573364H32.094C32.7285 0.573364 33.182 1.02681 33.182 1.57082C33.182 1.6614 33.182 1.75197 33.182 1.84254L28.921 18.6153C28.4676 20.519 26.9261 21.9693 24.7506 21.9693H19.3111Z" fill="#121212" fill-opacity="0.4"/>
<path fill-rule="evenodd" clip-rule="evenodd" d="M1.08803 0.572754H7.52505C8.15964 0.572754 8.61309 1.0262 8.61309 1.57021V20.8813C8.61309 21.5159 8.15964 21.9693 7.52505 21.9693H1.08803C0.544016 21.9693 0 21.5159 0 20.8813V1.57021C0 1.0262 0.544016 0.572754 1.08803 0.572754Z" fill="#121212" fill-opacity="0.4"/>
</g>
<defs>
<clipPath id="clip0_27_4989">
<rect width="100" height="22.0306" fill="white" transform="translate(0 0.210449)"/>
</clipPath>
</defs>
</svg>
