<svg width="100" height="89" viewBox="0 0 100 89" fill="none" xmlns="http://www.w3.org/2000/svg">
<g clip-path="url(#clip0_27_4997)">
<path d="M12.6961 87.0082C13.8414 86.5001 14.6895 85.7381 15.2449 84.722C15.8003 83.7059 16.0802 82.4315 16.0802 80.9117C16.0802 79.3875 15.8003 78.1173 15.2449 77.097C14.6895 76.0809 13.8414 75.3189 12.6961 74.8151C11.5551 74.3071 10.1041 74.0574 8.34754 74.0574C6.59095 74.0574 5.14859 74.3071 4.02048 74.8151C2.89248 75.3189 2.04852 76.0809 1.49311 77.097C0.937709 78.1174 0.657845 79.3875 0.657845 80.9117C0.657845 82.4315 0.937709 83.706 1.49311 84.722C2.04853 85.7381 2.89237 86.5002 4.02048 87.0082C5.14848 87.5119 6.59514 87.766 8.36904 87.766C10.1127 87.766 11.5551 87.5119 12.6961 87.0082ZM5.66949 84.6445C5.01075 84.3517 4.5372 83.8997 4.25294 83.2839C3.96447 82.6682 3.82239 81.8847 3.82239 80.9331C3.82239 79.9644 3.96016 79.1765 4.24002 78.5695C4.51989 77.9625 4.98489 77.506 5.64789 77.196C6.30664 76.8903 7.20651 76.7353 8.34741 76.7353C9.51851 76.7353 10.4312 76.8817 11.0814 77.1745C11.7359 77.4673 12.2008 77.9236 12.4764 78.5393C12.7562 79.155 12.894 79.9429 12.894 80.9116C12.894 81.8933 12.7562 82.6812 12.4764 83.284C12.2008 83.8825 11.7272 84.3346 11.0598 84.636C10.3925 84.9331 9.4883 85.0838 8.34741 85.0838C7.21941 85.0838 6.32817 84.9374 5.66938 84.6446M31.5669 74.2985V87.5206H34.5764V83.4347H39.1016C40.8453 83.4347 42.1498 83.0816 43.011 82.3712C43.8764 81.6608 44.3113 80.4983 44.3113 78.888C44.3113 77.7341 44.1132 76.8214 43.7257 76.154C43.3382 75.4867 42.7656 75.013 42.0121 74.7245C41.2587 74.4404 40.2899 74.2983 39.1016 74.2983L31.5669 74.2985ZM34.5764 80.9117V76.8H38.925C39.5579 76.8 40.0487 76.8775 40.3974 77.0325C40.7505 77.1875 40.9959 77.4114 41.1337 77.7041C41.2715 77.9969 41.3447 78.3671 41.3447 78.8235C41.3447 79.5727 41.1509 80.1066 40.772 80.4251C40.3888 80.748 39.7774 80.9117 38.9249 80.9117L34.5764 80.9117ZM59.3806 87.5207H70.7554V84.9072H62.3854V82.0528H69.92V79.6158H62.3854V76.9121H70.7123V74.2986H59.3804L59.3806 87.5207ZM99.6883 87.5207V84.8211H91.693V74.2985H88.6834V87.5206L99.6883 87.5207Z" fill="#121212" fill-opacity="0.4"/>
<path d="M49.609 57.1824C35.0092 57.1824 23.1307 45.3039 23.1307 30.704C23.1307 29.9505 23.1693 29.2057 23.2339 28.4695L45.3685 29.8515L35.7888 36.4734C35.6596 36.5638 35.5735 36.7145 35.5735 36.8824C35.5735 37.158 35.7974 37.3862 36.0729 37.3862H75.2355C72.2648 48.761 61.901 57.1829 49.6092 57.1829M49.6092 4.22512C64.2135 4.22512 76.0875 16.1036 76.0875 30.7035C76.0875 31.4526 76.0489 32.1932 75.9886 32.9251H75.9757L53.8411 31.5171L63.4466 24.9341C63.5801 24.8437 63.6619 24.693 63.6619 24.525C63.6619 24.2452 63.438 24.0213 63.1625 24.0213H23.9867C26.9531 12.6465 37.3168 4.22451 49.6086 4.22451M87.5698 33.6612L80.3236 33.2006L79.4496 33.1445C79.5142 32.3394 79.5573 31.5256 79.5573 30.7034C79.5573 14.1923 66.1236 0.758545 49.6081 0.758545C35.3918 0.758545 23.4692 10.7172 20.4216 24.0207H13.804C13.4295 24.0207 13.0979 24.1972 12.887 24.4728L11.1949 26.8106C11.1174 26.9096 11.07 27.0345 11.07 27.168C11.07 27.4866 11.3283 27.7449 11.6513 27.7449L18.8673 28.1927L19.7715 28.253C19.7069 29.0625 19.6639 29.8762 19.6639 30.7029C19.6639 47.214 33.0976 60.6521 49.6087 60.6521C63.825 60.6521 75.752 50.6892 78.7952 37.3856H85.4171C85.7916 37.3856 86.1231 37.2091 86.3341 36.9335L88.0262 34.5956C88.1037 34.4966 88.1468 34.3717 88.1468 34.2382C88.1468 33.9196 87.8884 33.6613 87.5698 33.6613" fill="#121212" fill-opacity="0.4"/>
</g>
<defs>
<clipPath id="clip0_27_4997">
<rect width="100" height="87.574" fill="white" transform="translate(0 0.438721)"/>
</clipPath>
</defs>
</svg>
