<svg width="100" height="39" viewBox="0 0 100 39" fill="none" xmlns="http://www.w3.org/2000/svg">
<g clip-path="url(#clip0_27_5014)">
<path d="M49.9996 0.696289C22.5714 0.696289 0.584747 8.91766 0.584747 19.2254C0.584747 29.4703 22.7525 37.7552 49.9996 37.7552C77.2474 37.7552 99.4153 29.4425 99.4153 19.2254C99.4153 9.00823 77.2474 0.696289 49.9996 0.696289Z" fill="#121212" fill-opacity="0.4"/>
<path d="M69.4638 23.1505C69.4771 23.2353 69.5885 23.3166 69.6963 23.3551C69.7361 23.3684 69.7555 23.3949 69.714 23.4851C69.4064 24.1446 69.1234 24.5248 68.7377 25.0979C68.3828 25.6273 67.9831 26.0404 67.4993 26.4378C66.7694 27.0417 65.7558 27.6992 64.9179 27.2572C64.5457 27.0641 64.3846 26.5431 64.3918 26.1214C64.4095 24.9355 64.9371 23.718 65.9113 22.5215C67.0989 21.0594 68.4118 20.301 69.2734 20.7155C70.1649 21.1407 69.8804 22.1729 69.4812 22.983C69.4502 23.0458 69.4502 23.0988 69.4635 23.1501M79.03 13.9099C79.0941 13.7967 79.0266 13.7141 78.8837 13.7141C78.1391 13.7141 77.1621 13.7158 76.3863 13.7158C76.2015 13.7158 76.106 13.7379 76.019 13.9102C75.7326 14.4589 72.2427 19.6892 71.5931 20.7049C71.4835 20.8596 71.35 20.8379 71.3345 20.6606C71.2687 20.0574 70.7477 19.3639 69.9269 19.0321C69.3014 18.7784 68.6899 18.7324 68.0541 18.8168C66.9062 18.9711 65.8836 19.5766 64.9846 20.2595C63.6295 21.2896 62.4605 22.6247 60.9513 23.6113C60.1274 24.1483 58.9992 24.6166 58.2443 23.9175C57.561 23.2841 57.6382 21.8772 58.6836 20.7891C58.7936 20.6751 58.9258 20.7714 58.905 20.8726C58.8064 21.3647 58.9271 21.8541 59.301 22.1972C59.7571 22.6061 60.4098 22.6522 60.9684 22.3793C61.6276 22.0527 62.015 21.422 62.1278 20.7061C62.3024 19.5957 61.4478 18.6164 60.3782 18.5378C59.5093 18.4768 58.6761 18.7791 57.8643 19.4492C57.4572 19.7869 57.226 20.0363 56.874 20.537C56.7882 20.6603 56.6565 20.6726 56.6605 20.4905C56.7002 19.0689 56.1128 18.269 54.9375 18.2429C54.0251 18.2208 53.0506 18.7161 52.2909 19.3218C51.4581 19.9906 50.7299 20.8769 49.9493 21.7097C49.852 21.8123 49.7676 21.8074 49.7402 21.6085C49.7181 20.6665 49.4799 19.7542 49.044 19.1063C48.8897 18.8809 48.565 18.7694 48.2921 18.9215C48.1662 18.9905 47.728 19.192 47.4089 19.4489C47.2507 19.5793 47.1888 19.7681 47.259 20.01C47.6798 21.4172 47.5874 23.0172 47.0164 24.3686C46.4921 25.6063 45.4733 26.7225 44.2757 27.1004C43.4868 27.3505 42.6667 27.2281 42.1592 26.5287C41.4623 25.5634 41.7437 23.8847 42.7827 22.4909C43.6995 21.2635 45.0258 20.4838 46.3487 19.9818C46.5043 19.9217 46.5365 19.8218 46.4923 19.6896C46.4207 19.4722 46.3058 19.176 46.2594 19.0408C46.1378 18.7177 45.7982 18.6655 45.3833 18.7106C44.4222 18.8224 43.555 19.1518 42.6986 19.6104C40.4558 20.8114 39.3313 23.1358 38.8385 24.3794C38.6012 24.9768 38.3983 25.3494 38.1361 25.6798C37.7825 26.1242 37.3386 26.5289 36.5271 27.2416C36.4537 27.307 36.3989 27.4431 36.4608 27.57C36.5434 27.7415 36.9656 28.3376 37.0846 28.3908C37.2168 28.4557 37.3701 28.3642 37.4316 28.3209C37.9995 27.9359 38.6789 27.3258 39.0114 26.9119C39.1281 26.77 39.2479 26.8297 39.3098 27.045C39.62 28.152 40.4325 29.0559 41.556 29.434C43.6125 30.1275 45.7454 29.1237 47.3555 27.3761C48.3787 26.2654 48.748 25.551 49.1402 25.0654C49.8049 24.2419 51.116 22.3995 52.6777 21.2167C53.2504 20.7804 53.928 20.4477 54.2688 20.6687C54.5424 20.846 54.6308 21.2579 54.1919 22.056C52.5997 24.9635 50.2571 28.3795 49.8275 29.2079C49.7488 29.3515 49.8186 29.4646 49.968 29.4646C50.8012 29.4605 51.6271 29.4626 52.3834 29.4626C52.5094 29.4582 52.5656 29.3989 52.6288 29.3101C53.8507 27.3974 55.0006 25.577 56.2331 23.6949C56.3021 23.5839 56.3657 23.6683 56.3684 23.7169C56.3949 24.1536 56.501 24.7509 56.7604 25.1431C57.2264 25.8682 57.8866 26.1798 58.6188 26.1845C59.2015 26.1934 59.4963 26.1027 60.1246 25.868C60.6359 25.6784 61.0463 25.4296 61.3613 25.2044C61.5451 25.0762 61.5774 25.2906 61.573 25.3233C61.2901 26.8417 61.6393 28.6408 63.1484 29.3868C64.9544 30.2773 66.9384 29.0256 68.0801 27.8958C68.1919 27.7871 68.3117 27.7985 68.3232 28.0332C68.3497 28.4646 68.5424 28.9765 68.8993 29.3348C69.856 30.2949 71.7865 29.9144 73.7239 28.4148C74.9678 27.4547 76.2693 26.0983 77.445 24.6619C77.4892 24.6062 77.521 24.5169 77.4361 24.4263C77.2571 24.2389 76.9981 24.0245 76.8205 23.8594C76.7397 23.7905 76.6208 23.8104 76.5527 23.8618C75.3476 25.0079 74.2628 26.315 72.695 27.3958C72.1662 27.7649 71.3235 28.0626 70.945 27.5501C70.7974 27.3512 70.8142 27.0762 70.9583 26.7152C71.4154 25.5753 78.6526 14.5565 79.0283 13.9067" fill="white"/>
<path d="M44.9797 15.2395C45.0107 15.4031 45.0744 15.4349 45.1486 15.4212C45.5173 15.3474 45.9207 15.0442 46.1595 14.6927C46.377 14.374 46.4791 13.9141 46.2629 13.7298C46.0702 13.5641 45.7564 13.6109 45.5238 13.8164C45.0606 14.2257 44.9199 14.8065 44.9796 15.2398M26.5338 29.4234C23.8353 29.441 21.458 27.7746 21.1852 24.8876C21.0336 23.2879 21.4858 21.8622 22.391 20.6876C23.1943 19.641 24.5536 18.7715 25.7041 18.5591C26.0785 18.4905 26.5815 18.5325 26.7895 18.7818C27.1157 19.1615 27.0219 19.5786 26.6957 19.745C25.818 20.1932 24.7618 20.9604 24.2392 22.008C23.8153 22.8631 23.7296 23.8936 24.3771 24.8754C25.4607 26.5115 28.4814 26.5565 31.2901 23.9472C31.9856 23.3086 32.6081 22.695 33.2408 21.9682C34.4779 20.5538 34.8893 20.0384 36.5337 17.7575C36.5514 17.731 36.5602 17.6965 36.5513 17.6797C36.5381 17.6488 36.516 17.6443 36.467 17.6399C35.3693 17.6709 34.4122 17.9976 33.4819 18.6927C33.2141 18.8881 32.8285 18.8607 32.6597 18.6034C32.4719 18.3126 32.6067 17.934 32.9157 17.7202C34.4121 16.6794 36.0468 16.4907 37.7162 16.209C37.7149 16.209 37.8321 16.2134 37.9275 16.0878C38.6128 15.2083 39.1303 14.415 39.8608 13.5255C40.5969 12.6231 41.5477 11.7944 42.2741 11.1719C43.2881 10.3 43.9385 10.0066 44.5994 9.64701C44.7735 9.55596 44.5773 9.44724 44.5242 9.44724C40.8344 8.75374 36.9991 7.85634 33.3346 9.21294C30.7967 10.16 29.6845 12.1726 30.2195 13.5174C30.6 14.4713 31.8546 14.6264 33.0292 14.0516C34.0047 13.5736 34.9075 12.8033 35.5475 11.8116C35.9055 11.2608 36.66 11.6582 36.2524 12.6145C35.18 15.1349 33.1314 17.1341 30.6361 17.2185C28.5124 17.2875 27.1421 15.7251 27.1466 13.7977C27.1555 9.996 31.3876 7.49175 35.8354 7.11737C41.1919 6.67471 46.2653 8.10153 51.5837 8.74663C55.6585 9.24008 59.5653 9.25035 63.661 8.30946C64.1452 8.20426 64.4849 8.51321 64.4534 9.00225C64.4136 9.70914 63.8659 10.39 62.517 11.1257C60.9828 11.9671 59.3778 12.2224 57.7016 12.2361C53.6484 12.2714 49.8728 10.6899 45.9657 9.84092C45.9701 10.012 46.0152 10.2157 45.872 10.3237C43.7078 11.92 41.7516 13.541 40.4415 15.8178C40.3973 15.8704 40.4193 15.9204 40.4976 15.9151C41.6351 15.8545 42.6581 15.8254 43.7201 15.7405C43.9057 15.7228 43.9127 15.6786 43.8964 15.5433C43.8022 14.7586 44.0316 13.8637 44.722 13.2481C45.4285 12.6146 46.3132 12.5426 46.8996 12.9988C47.5663 13.5183 47.5073 14.4527 47.1427 15.1534C46.7714 15.8643 46.1582 16.2446 45.5697 16.4292C45.5697 16.4292 45.446 16.4558 45.4645 16.568C45.4866 16.7475 46.2895 17.1918 46.3581 17.3102C46.4244 17.4229 46.3891 17.5975 46.2684 17.7314C46.1835 17.8287 46.0505 17.9197 45.8803 17.9167C45.7429 17.9139 45.6593 17.8663 45.4834 17.7712C45.1236 17.5763 44.674 17.2558 44.374 16.878C44.2719 16.7503 44.2197 16.7477 43.9647 16.7618C42.8155 16.8281 41.0236 17.0014 39.8096 17.153C39.5152 17.1883 39.4719 17.2444 39.4113 17.3465C37.4757 20.5385 35.4089 23.9806 33.1397 26.2852C30.7057 28.7561 28.6826 29.4067 26.5348 29.4236" fill="white"/>
<path d="M49.9986 3.72619C24.7654 3.72619 4.31197 10.699 4.31197 19.2313C4.31197 27.7642 24.7654 34.7376 49.9986 34.7376C75.2314 34.7376 95.6835 27.7642 95.6835 19.2313C95.6835 10.699 75.2314 3.72619 49.9986 3.72619ZM49.9986 36.1428C23.8468 36.1428 2.64703 28.5713 2.64703 19.2313C2.64703 9.88982 23.8468 2.3197 49.9986 2.3197C76.1479 2.3197 97.3464 9.88982 97.3464 19.2313C97.3464 28.5713 76.1479 36.1428 49.9986 36.1428Z" fill="white"/>
</g>
<defs>
<clipPath id="clip0_27_5014">
<rect width="100" height="38.2284" fill="white" transform="translate(0 0.111572)"/>
</clipPath>
</defs>
</svg>
