<svg width="200" height="28" viewBox="0 0 200 28" fill="none" xmlns="http://www.w3.org/2000/svg">
<g clip-path="url(#clip0_27_4869)">
<path d="M13.2722 0.746094C11.769 0.746094 10.3025 1.00274 8.98258 1.47937V3.38587C8.21265 3.67918 7.47938 4.08248 6.81943 4.55911V2.43262C2.74977 4.70576 0 9.03207 0 14.0183C0 21.3144 5.93951 27.2905 13.2722 27.2905C15.2887 27.2905 17.1952 26.8506 18.8818 26.044L18.1485 24.4308C18.8084 24.1375 19.4317 23.7342 20.0183 23.3309L20.7883 24.9807C24.2713 22.5976 26.5445 18.5646 26.5445 14.055C26.5078 6.6856 20.5683 0.746094 13.2722 0.746094ZM19.8717 23.0009L18.2218 19.4079L22.7681 9.25205H20.385L17.0119 16.7681L15.9853 14.5316L18.3685 9.21539H15.9853L14.7754 11.8552L13.6022 9.28871L13.6389 9.21539H13.5655H11.2557L10.1192 11.8185L8.94592 9.17872H8.90926V3.71585C10.0825 3.23922 11.3291 2.94591 12.6489 2.87258C12.8323 2.87258 13.0156 2.87258 13.1989 2.87258C13.1989 2.87258 13.1989 2.87258 13.2356 2.87258C13.2356 2.87258 13.2356 2.87258 13.2722 2.87258C19.4317 2.87258 24.418 7.8955 24.418 14.0183C24.418 14.2383 24.418 14.4583 24.3813 14.6416C24.3813 14.7149 24.3813 14.7516 24.3813 14.8249C24.3813 14.9716 24.3446 15.1182 24.3446 15.2649C24.3446 15.3382 24.3446 15.4115 24.308 15.4482C24.2713 15.5949 24.2713 15.7415 24.2346 15.8882C24.2346 15.9615 24.198 15.9982 24.198 16.0715C24.1613 16.2548 24.1247 16.4381 24.088 16.5848C24.088 16.6214 24.088 16.6214 24.088 16.6581C23.4647 19.2612 21.9248 21.461 19.8717 23.0009ZM16.3153 24.7241C16.0953 24.7974 15.9487 24.8341 15.7654 24.8708C15.7287 24.8708 15.692 24.8708 15.692 24.9074C15.5454 24.9441 15.3621 24.9807 15.2154 25.0174C15.1787 25.0174 15.1421 25.0174 15.0687 25.0541C14.9221 25.0907 14.7754 25.0907 14.6288 25.1274C14.5921 25.1274 14.5188 25.1274 14.4821 25.1641C14.3355 25.1641 14.1888 25.2007 14.0422 25.2007C14.0055 25.2007 13.9322 25.2007 13.8955 25.2007C13.7122 25.2007 13.4922 25.2007 13.2722 25.2007C7.11274 25.1641 2.08983 20.1778 2.08983 14.0183C2.08983 13.7983 2.08983 13.5784 2.12649 13.3584C2.12649 13.285 2.12649 13.2484 2.12649 13.1751C2.12649 13.0284 2.16315 12.8817 2.16315 12.6984C2.16315 12.6251 2.16315 12.5884 2.19982 12.5151C2.23648 12.3685 2.23648 12.1851 2.27314 12.0385C2.27314 12.0018 2.27314 11.9285 2.30981 11.8918C2.85976 9.03207 4.50962 6.53894 6.81943 4.92575V19.7012H8.98258H9.01925L10.1558 17.1347L11.2924 19.7012H13.6755H13.7122L14.8488 17.1347L18.0018 24.1375C17.4519 24.3575 16.9019 24.5774 16.3153 24.7241ZM12.4656 11.8552L13.6389 14.4216L12.4656 16.9881L11.3291 14.4216L12.4656 11.8552Z" fill="url(#paint0_linear_27_4869)"/>
<path d="M40.2566 20.8743L35.1604 14.5315H35.1237V20.8743H31.8973V7.12549H35.1237V12.735H35.1971L40.11 7.12549H44.253L38.3135 13.4683L44.5829 20.8743H40.2566Z" fill="url(#paint1_linear_27_4869)"/>
<path d="M60.2383 20.8743H56.9386L54.2621 11.5618H54.1888L51.4757 20.8743H48.176L44.2896 7.12549H47.846L50.0091 16.2547H50.0825L52.5389 7.12549H55.9853L58.4418 16.2547H58.5151L60.7149 7.12549H64.1613L60.2383 20.8743Z" fill="url(#paint2_linear_27_4869)"/>
<path d="M79.1934 20.8743L78.1302 18.1612H72.8139L71.7874 20.8743H68.1577L73.9138 7.12549H77.1402L82.8598 20.8743H79.1934ZM75.4904 10.7918L73.7305 15.5215H77.1769L75.4904 10.7918Z" fill="url(#paint3_linear_27_4869)"/>
<path d="M94.9221 17.9413C94.6288 18.6379 94.2622 19.1878 93.7122 19.7011C93.1989 20.1777 92.5756 20.581 91.8424 20.8377C91.1091 21.0943 90.3025 21.241 89.4226 21.241C88.506 21.241 87.6994 21.0943 86.9661 20.8377C86.2328 20.581 85.6096 20.1777 85.1329 19.7011C84.6196 19.2245 84.253 18.6379 83.9597 17.9413C83.7031 17.2446 83.5564 16.5114 83.5564 15.6681V7.12549H86.8561V15.4115C86.8561 15.7781 86.8928 16.1447 87.0028 16.4747C87.1128 16.8047 87.2594 17.098 87.4427 17.3913C87.6261 17.6479 87.9194 17.8679 88.2493 18.0146C88.5793 18.1612 88.9826 18.2346 89.4592 18.2346C89.9359 18.2346 90.3392 18.1612 90.6691 18.0146C90.9991 17.8679 91.2558 17.6479 91.4757 17.3913C91.6957 17.1347 91.8424 16.8413 91.9157 16.4747C91.989 16.1447 92.0624 15.7781 92.0624 15.4115V7.12549H95.3987V15.7048C95.3254 16.5114 95.1788 17.2813 94.9221 17.9413Z" fill="url(#paint4_linear_27_4869)"/>
<path d="M103.905 9.94859V20.8743H100.568V9.94859H96.6819V7.12549H107.754V9.94859H103.905Z" fill="url(#paint5_linear_27_4869)"/>
<path d="M123.043 13.945C123.043 15.0449 122.86 16.0348 122.493 16.9147C122.126 17.8313 121.613 18.6013 120.917 19.2245C120.257 19.8478 119.45 20.3611 118.533 20.7277C117.617 21.0944 116.627 21.241 115.527 21.241C114.464 21.241 113.474 21.0577 112.557 20.7277C111.641 20.3611 110.871 19.8845 110.174 19.2245C109.514 18.6013 109.001 17.8313 108.598 16.9147C108.231 15.9981 108.048 15.0082 108.048 13.945C108.048 12.8451 108.231 11.8552 108.598 10.9752C108.964 10.0953 109.478 9.32536 110.174 8.70208C110.834 8.0788 111.641 7.60217 112.557 7.2722C113.474 6.94223 114.464 6.75891 115.527 6.75891C116.59 6.75891 117.58 6.94223 118.533 7.2722C119.45 7.60217 120.257 8.0788 120.917 8.70208C121.577 9.32536 122.09 10.0953 122.493 10.9752C122.86 11.8552 123.043 12.8451 123.043 13.945ZM119.487 13.945C119.487 13.3584 119.377 12.8084 119.193 12.2585C119.01 11.7452 118.717 11.3052 118.387 10.9386C118.057 10.5719 117.617 10.2786 117.14 10.0586C116.664 9.83865 116.114 9.72866 115.527 9.72866C114.94 9.72866 114.427 9.83865 113.951 10.0586C113.474 10.2786 113.071 10.5719 112.704 10.9386C112.337 11.3052 112.081 11.7452 111.897 12.2585C111.714 12.7717 111.604 13.3217 111.604 13.945C111.604 14.5683 111.714 15.1549 111.897 15.6682C112.081 16.1815 112.374 16.6581 112.704 17.0247C113.034 17.3914 113.474 17.6847 113.951 17.9046C114.427 18.1246 114.977 18.2346 115.527 18.2346C116.077 18.2346 116.627 18.1246 117.104 17.9046C117.58 17.6847 117.983 17.3914 118.35 17.0247C118.717 16.6581 118.973 16.1815 119.157 15.6682C119.377 15.1549 119.487 14.5683 119.487 13.945Z" fill="url(#paint6_linear_27_4869)"/>
<path d="M137.709 20.8743L137.782 11.1585H137.709L134.152 20.8743H131.806L128.323 11.1585H128.249L128.323 20.8743H125.206V7.12549H129.936L133.052 15.9248H133.126L136.132 7.12549H140.935V20.8743H137.709Z" fill="url(#paint7_linear_27_4869)"/>
<path d="M158.094 13.945C158.094 15.0449 157.91 16.0348 157.544 16.9147C157.177 17.8313 156.664 18.6013 155.967 19.2245C155.307 19.8478 154.5 20.3611 153.584 20.7277C152.667 21.0944 151.677 21.241 150.577 21.241C149.514 21.241 148.524 21.0577 147.608 20.7277C146.691 20.3611 145.921 19.8845 145.225 19.2245C144.565 18.6013 144.051 17.8313 143.648 16.9147C143.281 15.9981 143.098 15.0082 143.098 13.945C143.098 12.8451 143.281 11.8552 143.648 10.9752C144.015 10.0953 144.528 9.32536 145.225 8.70208C145.885 8.0788 146.691 7.60217 147.608 7.2722C148.524 6.94223 149.514 6.75891 150.577 6.75891C151.641 6.75891 152.631 6.94223 153.584 7.2722C154.5 7.60217 155.307 8.0788 155.967 8.70208C156.627 9.32536 157.14 10.0953 157.544 10.9752C157.91 11.8552 158.094 12.8451 158.094 13.945ZM154.537 13.945C154.537 13.3584 154.427 12.8084 154.244 12.2585C154.061 11.7452 153.767 11.3052 153.437 10.9386C153.107 10.5719 152.667 10.2786 152.191 10.0586C151.714 9.83865 151.164 9.72866 150.577 9.72866C149.991 9.72866 149.478 9.83865 149.001 10.0586C148.524 10.2786 148.121 10.5719 147.754 10.9386C147.388 11.3052 147.131 11.7452 146.948 12.2585C146.764 12.7717 146.654 13.3217 146.654 13.945C146.654 14.5683 146.764 15.1549 146.948 15.6682C147.131 16.1815 147.424 16.6581 147.754 17.0247C148.084 17.3914 148.524 17.6847 149.001 17.9046C149.478 18.1246 150.028 18.2346 150.577 18.2346C151.127 18.2346 151.677 18.1246 152.154 17.9046C152.631 17.6847 153.034 17.3914 153.401 17.0247C153.767 16.6581 154.024 16.1815 154.207 15.6682C154.464 15.1549 154.537 14.5683 154.537 13.945Z" fill="url(#paint8_linear_27_4869)"/>
<path d="M165.61 9.94859V20.8743H162.273V9.94859H158.387V7.12549H169.459V9.94859H165.61Z" fill="url(#paint9_linear_27_4869)"/>
<path d="M170.999 20.8743V7.12549H174.335V20.8743H170.999Z" fill="url(#paint10_linear_27_4869)"/>
<path d="M183.978 20.8743H180.642L175.435 7.12549H179.175L182.365 16.878H182.438L185.591 7.12549H189.258L183.978 20.8743Z" fill="url(#paint11_linear_27_4869)"/>
<path d="M190.431 20.8743V7.12549H199.67V9.91192H193.621V12.515H199.34V15.1915H193.621V18.0512H200V20.8743H190.431Z" fill="url(#paint12_linear_27_4869)"/>
</g>
<defs>
<linearGradient id="paint0_linear_27_4869" x1="13.5177" y1="-1.51686" x2="13.0333" y2="27.3834" gradientUnits="userSpaceOnUse">
<stop offset="0.00168269" stop-color="#0073BD"/>
<stop offset="1" stop-color="#00B3D7"/>
</linearGradient>
<linearGradient id="paint1_linear_27_4869" x1="38.4925" y1="-1.09834" x2="38.0081" y2="27.8019" gradientUnits="userSpaceOnUse">
<stop offset="0.00168269" stop-color="#0073BD"/>
<stop offset="1" stop-color="#00B3D7"/>
</linearGradient>
<linearGradient id="paint2_linear_27_4869" x1="54.3553" y1="-0.832495" x2="53.8709" y2="28.0678" gradientUnits="userSpaceOnUse">
<stop offset="0.00168269" stop-color="#0073BD"/>
<stop offset="1" stop-color="#00B3D7"/>
</linearGradient>
<linearGradient id="paint3_linear_27_4869" x1="75.8834" y1="-0.471688" x2="75.399" y2="28.4286" gradientUnits="userSpaceOnUse">
<stop offset="0.00168269" stop-color="#0073BD"/>
<stop offset="1" stop-color="#00B3D7"/>
</linearGradient>
<linearGradient id="paint4_linear_27_4869" x1="89.6259" y1="-0.241368" x2="89.1416" y2="28.6589" gradientUnits="userSpaceOnUse">
<stop offset="0.00168269" stop-color="#0073BD"/>
<stop offset="1" stop-color="#00B3D7"/>
</linearGradient>
<linearGradient id="paint5_linear_27_4869" x1="102.371" y1="-0.027765" x2="101.887" y2="28.8725" gradientUnits="userSpaceOnUse">
<stop offset="0.00168269" stop-color="#0073BD"/>
<stop offset="1" stop-color="#00B3D7"/>
</linearGradient>
<linearGradient id="paint6_linear_27_4869" x1="115.78" y1="0.197041" x2="115.296" y2="29.0973" gradientUnits="userSpaceOnUse">
<stop offset="0.00168269" stop-color="#0073BD"/>
<stop offset="1" stop-color="#00B3D7"/>
</linearGradient>
<linearGradient id="paint7_linear_27_4869" x1="133.321" y1="0.490951" x2="132.837" y2="29.3912" gradientUnits="userSpaceOnUse">
<stop offset="0.00168269" stop-color="#0073BD"/>
<stop offset="1" stop-color="#00B3D7"/>
</linearGradient>
<linearGradient id="paint8_linear_27_4869" x1="150.842" y1="0.784649" x2="150.358" y2="29.685" gradientUnits="userSpaceOnUse">
<stop offset="0.00168269" stop-color="#0073BD"/>
<stop offset="1" stop-color="#00B3D7"/>
</linearGradient>
<linearGradient id="paint9_linear_27_4869" x1="164.07" y1="1.0063" x2="163.586" y2="29.9066" gradientUnits="userSpaceOnUse">
<stop offset="0.00168269" stop-color="#0073BD"/>
<stop offset="1" stop-color="#00B3D7"/>
</linearGradient>
<linearGradient id="paint10_linear_27_4869" x1="172.888" y1="1.15409" x2="172.403" y2="30.0544" gradientUnits="userSpaceOnUse">
<stop offset="0.00168269" stop-color="#0073BD"/>
<stop offset="1" stop-color="#00B3D7"/>
</linearGradient>
<linearGradient id="paint11_linear_27_4869" x1="182.48" y1="1.31486" x2="181.996" y2="30.2151" gradientUnits="userSpaceOnUse">
<stop offset="0.00168269" stop-color="#0073BD"/>
<stop offset="1" stop-color="#00B3D7"/>
</linearGradient>
<linearGradient id="paint12_linear_27_4869" x1="195.428" y1="1.53183" x2="194.943" y2="30.4321" gradientUnits="userSpaceOnUse">
<stop offset="0.00168269" stop-color="#0073BD"/>
<stop offset="1" stop-color="#00B3D7"/>
</linearGradient>
<clipPath id="clip0_27_4869">
<rect width="200" height="26.5078" fill="white" transform="translate(0 0.746094)"/>
</clipPath>
</defs>
</svg>
