<svg width="100" height="71" viewBox="0 0 100 71" fill="none" xmlns="http://www.w3.org/2000/svg">
<g clip-path="url(#clip0_27_5021)">
<path d="M70.725 46.3293C70.269 44.9613 69.0834 42.5445 67.6698 39.9453C66.2562 37.3917 64.5691 34.6558 63.1099 32.7406C62.4715 31.8742 62.6995 31.4638 63.0643 31.1902C63.3835 30.9166 64.4779 29.959 65.8003 28.4998C67.1226 26.995 67.4418 25.3078 66.4842 22.891C65.5723 20.4743 62.5171 14.7287 61.8787 12.8135C61.1491 10.6247 61.0579 9.62155 61.5139 8.43596C62.0611 7.02237 62.7907 6.97677 63.3379 6.97677C63.6571 6.97677 63.8851 7.29597 63.8851 7.43277C63.8851 8.07116 63.9307 8.80076 64.5235 10.4423C65.4811 12.9959 67.989 14.6831 68.7642 15.0023C69.3114 15.2303 69.4026 14.8199 69.357 14.5919C69.3114 14.4095 68.4906 11.2175 67.8978 8.84636C67.2594 6.33838 66.9402 5.79118 66.3931 5.28958C65.4811 4.42319 64.1131 3.96719 62.9731 4.01279C60.3739 4.10399 59.2339 6.61197 59.0971 6.83997C58.9603 7.06797 58.9147 7.20477 58.6411 7.02237C57.9115 6.52077 55.7683 4.69679 55.5403 3.6024C55.4491 2.9184 55.3123 2.8272 54.6283 2.5992C52.0292 1.59601 49.7948 0.68402 47.3324 0.273623C46.3292 0.0912249 46.2836 2.563e-05 45.098 0.228024C43.1372 0.592821 41.906 1.04882 40.4469 1.82401C39.6261 2.23441 39.5349 2.55361 39.3525 2.736C39.2157 2.9184 39.0789 3.1008 38.8053 3.192C38.3037 3.3744 36.4797 4.01279 35.8413 4.42319C35.4309 4.65119 35.2485 4.87919 35.4309 5.33518C35.7957 6.11038 36.8445 7.75196 37.3005 8.16236C37.5741 8.39036 38.2581 8.57276 38.4405 8.61836C38.6229 8.66396 38.7141 8.70956 38.8053 8.57276C38.8509 8.43596 38.8965 8.25356 39.2157 8.02556C39.7173 7.66076 40.6293 7.43277 41.0852 7.38717C41.45 7.34157 41.678 7.34157 41.8604 7.47837C42.0428 7.61516 42.4988 8.07116 42.6356 8.57276C42.7724 9.02875 42.6812 9.21115 42.4532 9.34795C42.1796 9.43915 41.4044 9.62155 40.4925 9.71275C39.5805 9.80395 39.3069 9.53035 39.2613 9.48475C39.2157 9.43915 39.0789 9.34795 38.9877 9.48475C38.8509 9.71275 38.6229 9.84955 38.2581 10.0319C38.0301 10.1231 37.9389 10.3511 38.1213 10.6703C38.7141 11.6735 39.4893 12.8135 40.1733 13.0415C40.7205 13.2239 41.0396 13.0415 41.678 12.5855C42.2708 12.1751 42.6356 12.1751 42.7724 12.3119C42.9548 12.4487 43.274 12.7223 43.1828 13.0415C43.046 13.5431 41.9972 14.7743 41.8148 15.0023C41.6324 15.2303 41.45 15.3671 41.1308 15.1847C40.6293 14.9567 33.3333 11.1719 32.3301 10.7615C31.2813 10.3511 30.5517 10.2599 29.5029 10.2143C28.6365 10.1687 27.5422 10.2599 26.8126 10.3967C26.311 10.4879 25.9918 10.7159 25.5358 11.1719C24.8518 11.7647 24.1678 12.5855 24.1222 13.2239C24.0766 13.6799 24.5782 14.6375 24.6694 14.7287C24.715 14.8199 24.8062 14.9567 25.1254 14.9111C25.399 14.8655 26.1286 14.5007 26.995 14.6375C27.7702 14.7743 27.8614 15.4127 27.907 15.8687C27.907 15.9599 27.9982 16.1423 28.2262 16.1423C28.5454 16.1423 29.0469 16.1423 29.5941 16.4159C30.2781 16.7351 31.6461 17.8295 31.8741 18.0575C32.0565 18.2399 32.0565 18.4223 31.6917 18.4679C29.9589 18.6047 27.2686 19.1519 26.0374 19.5623C25.171 19.8359 24.1222 20.2463 23.7574 20.8847C23.347 21.6143 22.7998 22.7542 22.663 23.575C22.5262 24.3958 23.3926 25.399 23.6206 25.627C23.7574 25.7638 23.8942 25.855 24.1678 25.7182C24.5782 25.4902 25.627 24.8518 26.6302 24.7606C27.223 24.715 27.451 25.3078 27.6334 25.4902C27.7702 25.7182 27.907 25.5358 28.4542 25.399C29.4117 25.1254 34.7469 25.2622 36.6165 25.3534C37.4829 25.399 38.6685 25.5358 39.5349 25.9918L38.7597 33.5614C37.7109 35.4765 36.9357 36.9357 36.5709 37.7565C36.2061 38.5317 35.9325 39.6261 36.0237 40.4925C36.1149 41.7693 36.1605 42.4077 36.1149 42.9549C36.1149 43.4565 35.6133 43.5021 34.9749 43.6845C34.0629 43.9125 32.2389 44.0949 30.7797 44.4597C29.4573 44.7789 28.9557 45.0981 28.6821 46.1469C28.4998 46.9676 28.2262 48.974 28.1806 49.886C28.1806 50.2508 28.135 50.4332 28.6365 50.342C28.9101 50.2964 29.6853 50.1596 30.6885 50.114C31.9197 50.0228 33.2877 50.0228 34.2909 50.0228C36.2061 50.0228 41.8604 50.342 42.2252 50.3876C42.7268 50.4332 42.818 50.3876 42.7724 50.0228C42.7268 49.5668 42.6356 48.1532 42.6356 47.3324C42.59 46.4661 42.4988 45.5997 43.2284 44.7789C44.0036 43.9581 49.7492 37.5285 50.0684 37.2093C50.342 36.9357 50.5244 36.6165 50.9804 37.0269C51.4364 37.4373 56.1331 40.8573 57.1363 41.5413C58.0939 42.2253 59.0059 42.4989 60.1003 42.4989C60.8755 42.4989 61.1035 43.8669 60.4195 44.0037C59.7355 44.1405 58.6867 44.3685 57.9571 44.5053C56.8171 44.7789 56.4979 45.1437 56.1331 45.8733C55.8595 46.5117 55.5403 49.658 55.5403 49.9316C55.5403 50.114 55.5403 50.3876 55.8139 50.342C57.1819 50.0684 59.3707 49.9772 61.7419 50.0684C64.4323 50.1596 67.0314 50.3876 67.3962 50.3876C67.8066 50.4332 67.8522 50.342 68.0346 50.0684C68.3994 49.5212 69.4026 48.3812 70.269 47.6516C70.9074 47.0132 70.9074 46.8764 70.725 46.3293ZM43.3652 2.9184C43.3652 2.964 43.3196 3.0096 43.274 3.0096C43.0916 3.0552 41.9972 3.4656 41.7236 3.5568C41.4956 3.648 41.3588 3.6024 41.3132 3.5112C41.2676 3.42 41.3132 3.2376 41.3588 3.1464C41.4044 3.0552 41.45 3.0096 41.5412 3.0096C41.7236 2.9184 42.7724 2.6448 43.0916 2.5992C43.274 2.55361 43.3652 2.59921 43.3652 2.6904C43.4108 2.8272 43.4108 2.9184 43.3652 2.9184ZM60.4195 27.3598C59.7355 27.5878 59.2795 27.4054 58.9603 27.0862C58.6411 26.767 55.9051 23.4838 55.0387 22.5262C54.5827 22.0247 54.2635 20.8847 55.5859 20.3831C56.6803 19.9727 58.6411 19.3799 59.1427 19.0607C59.6899 18.7871 59.9635 18.4679 60.0091 17.9207C60.0547 17.3735 60.0547 16.7351 60.0547 16.5527C60.0547 16.3247 60.3283 16.1879 60.4651 16.4159C60.5563 16.5983 61.0579 17.5559 61.6507 18.6503C62.5627 20.2919 63.6571 22.3894 64.0219 23.2558C64.3867 24.1222 64.2043 24.7606 63.6571 25.399C62.9731 26.2198 60.9211 27.1774 60.4195 27.3598Z" fill="#121212" fill-opacity="0.4"/>
<path d="M4.60556 61.7419H0V70.1779H2.32558V67.5787H4.42316C8.89193 67.5787 11.1719 66.1651 11.1719 64.5691C11.1719 62.8819 8.70953 61.7419 4.60556 61.7419ZM3.87597 66.6667H2.32558V62.6539H4.14957C6.01915 62.6539 8.52713 62.9731 8.52713 64.5235C8.52713 65.6179 7.75194 66.6667 3.87597 66.6667Z" fill="#121212" fill-opacity="0.4"/>
<path d="M24.4414 69.1291V70.1779H17.6015C15.4583 70.1779 14.7743 69.2659 14.7743 67.6699V61.7419H24.1222V62.7907H17.0999V65.2987H23.8486V66.3475H17.0999V67.5787C17.0999 68.5363 17.4647 69.0835 18.6959 69.0835H24.4414V69.1291Z" fill="#121212" fill-opacity="0.4"/>
<path d="M39.3069 61.7419V69.2659C37.6653 69.9499 35.6589 70.4515 33.2421 70.4515C30.6886 70.4515 28.363 69.7675 28.363 67.4419V61.7419H30.6886V67.2595C30.6886 68.8099 32.4669 69.2659 34.2453 69.2659C35.5221 69.2659 36.3429 69.0835 36.9813 68.8555V61.7419H39.3069Z" fill="#121212" fill-opacity="0.4"/>
<path d="M55.4492 66.3931V69.7219C54.218 70.0411 52.166 70.4515 50.2052 70.4515C46.3292 70.4515 43.1373 68.8555 43.1373 65.9827C43.1373 63.2468 46.3292 61.4684 50.2052 61.4684C52.2116 61.4684 53.6252 61.6964 55.1756 62.1524V63.566C53.7164 63.0644 52.2116 62.5172 50.2052 62.5172C47.7884 62.5172 45.782 63.6116 45.782 65.9371C45.782 68.0347 47.7428 69.3571 50.3876 69.3571C51.71 69.3571 52.3028 69.1291 53.1692 68.8555V66.3475H55.4492V66.3931Z" fill="#121212" fill-opacity="0.4"/>
<path d="M69.3115 69.1291V70.1779H62.4715C60.3283 70.1779 59.6899 69.2659 59.6899 67.6699V61.7419H69.0379V62.7907H62.0155V65.2987H68.7643V66.3475H62.0155V67.5787C62.0155 68.5363 62.3803 69.0835 63.6115 69.0835H69.3115V69.1291Z" fill="#121212" fill-opacity="0.4"/>
<path d="M79.4346 61.4684C75.513 61.4684 72.3666 63.2924 72.3666 66.0283C72.3666 68.9011 75.5586 70.4515 79.4346 70.4515C83.3106 70.4515 86.5025 68.9011 86.5025 66.0283C86.5025 63.2924 83.3106 61.4684 79.4346 61.4684ZM79.4346 69.4939C76.7898 69.4939 75.0114 68.1259 75.0114 66.0283C75.0114 63.7028 77.0178 62.5172 79.4346 62.5172C81.8514 62.5172 83.8577 63.6572 83.8577 66.0283C83.8577 68.1259 82.0338 69.4939 79.4346 69.4939Z" fill="#121212" fill-opacity="0.4"/>
<path d="M100 61.7419V62.9275H95.3488V70.1779H93.0232V62.9275H88.4177V61.7419H100Z" fill="#121212" fill-opacity="0.4"/>
</g>
<defs>
<clipPath id="clip0_27_5021">
<rect width="100" height="70.4514" fill="white"/>
</clipPath>
</defs>
</svg>
