<svg xmlns="http://www.w3.org/2000/svg" width="11" height="11" fill="none"><rect id="backgroundrect" width="100%" height="100%" x="0" y="0" fill="none" stroke="none"/>


<g class="currentLayer" style=""><title>Layer 1</title><path d="M9.916881436538697,5.249409970321655 H11.083481436538696 C11.083481436538696,2.2569099703216553 8.824281436538696,-2.967834467071384e-8 5.8276914365386965,-2.967834467071384e-8 V1.1666599703216551 C8.197191436538697,1.1666599703216551 9.916881436538697,2.8834099703216554 9.916881436538697,5.249409970321655 z" fill="#0098CC" id="svg_1" class=""/><path d="M5.833491436538696,3.500089970321655 C7.060241436538696,3.500089970321655 7.583491436538697,4.023339970321655 7.583491436538697,5.250089970321655 H8.750181436538696 C8.750181436538696,3.3688399703216554 7.714741436538697,2.3334299703216552 5.833491436538696,2.3334299703216552 V3.500089970321655 zM7.8296614365386965,6.675179970321655 C7.717571436538696,6.5732999703216555 7.570281436538696,6.518969970321655 7.418881436538696,6.523649970321656 C7.267481436538697,6.528329970321655 7.123831436538696,6.591649970321655 7.0182414365386965,6.700259970321655 L5.622331436538697,8.135839970321655 C5.286331436538696,8.071679970321656 4.610831436538696,7.861089970321656 3.915491436538696,7.167509970321655 C3.220161436538696,6.471589970321656 3.0095814365386966,5.794339970321655 2.947161436538696,5.460679970321655 L4.3815814365386965,4.064179970321655 C4.4903214365386965,3.9586699703216555 4.553741436538696,3.8149899703216557 4.558421436538696,3.6635499703216556 C4.563101436538696,3.5121099703216556 4.508681436538696,3.364789970321655 4.4066614365386965,3.252759970321655 L2.251241436538696,0.8826799703216555 C2.1491914365386964,0.7702999703216553 2.007341436538696,0.7021399703216553 1.8558314365386965,0.6926599703216554 C1.7043314365386961,0.6831899703216555 1.5550914365386963,0.7331499703216555 1.4398314365386962,0.8319299703216552 L0.1739914365386963,1.9175099703216554 C0.07314143653869642,2.0187299703216555 0.01295143653869646,2.1534399703216556 0.004831436538696554,2.2960899703216553 C-0.003918563461303481,2.441929970321655 -0.17075856346130358,5.896429970321655 2.507911436538696,8.576259970321656 C4.844741436538696,10.912469970321656 7.771911436538696,11.083469970321655 8.578081436538696,11.083469970321655 C8.695881436538697,11.083469970321655 8.768281436538697,11.079969970321656 8.787481436538696,11.078769970321655 C8.930081436538696,11.070769970321654 9.064781436538697,11.010269970321655 9.165481436538697,10.908969970321655 L10.250481436538696,9.642569970321656 C10.349381436538696,9.527369970321656 10.399381436538697,9.378169970321656 10.390081436538697,9.226669970321655 C10.380681436538696,9.075169970321655 10.312581436538697,8.933269970321655 10.200281436538697,8.831179970321655 L7.8296614365386965,6.675179970321655 V6.675179970321655 z" fill="#0098CC" id="svg_2" class=""/></g></svg>