<svg width="24" height="25" viewBox="0 0 24 25" fill="none" xmlns="http://www.w3.org/2000/svg">
<g clip-path="url(#clip0_105_1670)">
<path d="M4.79033 17.2417V21.3547L8.90323 20.3385L12 23.4353L15.0968 20.3385L19.2097 21.3547V17.2417L23.371 16.1772L21.2903 12.0643L23.371 7.95142L19.2097 6.88691V2.774L15.0968 3.79013L12 0.693359L8.90323 3.79013L4.79033 2.774V6.88691L0.629036 7.95142L2.70968 12.0643L0.629036 16.1772L4.79033 17.2417ZM4.54839 11.145L3.62904 9.25788L5.2742 8.87078C5.75807 8.774 6.1371 8.54013 6.41129 8.16917C6.68549 7.7982 6.82258 7.37078 6.82258 6.88691V5.4353L8.37097 5.87078H8.90323C9.45162 5.87078 9.93549 5.6611 10.3548 5.24175L12 3.59659L13.6452 5.24175C14.0645 5.6611 14.5484 5.87078 15.0968 5.87078C15.2903 5.87078 15.4677 5.83852 15.629 5.774L17.1774 5.4353V6.88691C17.1774 7.37078 17.3145 7.7982 17.5887 8.16917C17.8629 8.54013 18.2419 8.774 18.7258 8.87078L20.371 9.25788L19.4516 11.145C19.129 11.7579 19.129 12.3708 19.4516 12.9837L20.371 14.8708L18.7258 15.2579C18.2419 15.3547 17.8629 15.5885 17.5887 15.9595C17.3145 16.3305 17.1774 16.7579 17.1774 17.2417V18.6934L15.629 18.2579H15.0968C14.5484 18.2579 14.0645 18.4676 13.6452 18.8869L12 20.5321L10.3548 18.8869C9.93549 18.4676 9.45162 18.2579 8.90323 18.2579C8.70968 18.2579 8.53226 18.2901 8.37097 18.3547L6.82258 18.6934V17.2417C6.82258 16.7579 6.68549 16.3305 6.41129 15.9595C6.1371 15.5885 5.75807 15.3547 5.2742 15.2579L3.62904 14.8708L4.54839 12.9837C4.87097 12.3708 4.87097 11.7579 4.54839 11.145ZM10.9839 15.5966L15.8226 10.7095C16.2742 10.2579 16.2742 9.774 15.8226 9.25788C15.3387 8.83852 14.8548 8.83852 14.371 9.25788L10.9839 12.6934L9.62904 11.3385C9.14517 10.9192 8.66129 10.9192 8.17742 11.3385C7.75807 11.8224 7.75807 12.3063 8.17742 12.7901L10.9839 15.5966Z" fill="#121212"/>
</g>
<defs>
<clipPath id="clip0_105_1670">
<rect width="23.23" height="24" fill="white" transform="translate(0.385002 0.451416)"/>
</clipPath>
</defs>
</svg>
