<svg width="13" height="10" viewBox="0 0 13 10" fill="none" xmlns="http://www.w3.org/2000/svg">
<path d="M10.7883 0.454995C10.9996 0.253828 11.2808 0.142615 11.5726 0.144823C11.8643 0.14703 12.1438 0.262486 12.352 0.466827C12.5602 0.671168 12.6809 0.948411 12.6887 1.24006C12.6964 1.5317 12.5905 1.81494 12.3933 2.03L6.40834 9.515C6.30542 9.62584 6.18121 9.7148 6.04313 9.77655C5.90506 9.83829 5.75594 9.87156 5.60471 9.87436C5.45348 9.87716 5.30324 9.84944 5.16297 9.79284C5.0227 9.73625 4.89528 9.65196 4.78834 9.545L0.819336 5.576C0.708806 5.473 0.620152 5.3488 0.558664 5.2108C0.497176 5.0728 0.464113 4.92383 0.461448 4.77278C0.458783 4.62173 0.48657 4.47168 0.543152 4.3316C0.599733 4.19152 0.68395 4.06427 0.790778 3.95744C0.897607 3.85061 1.02486 3.76639 1.16494 3.70981C1.30502 3.65323 1.45507 3.62544 1.60612 3.62811C1.75717 3.63077 1.90614 3.66384 2.04414 3.72532C2.18214 3.78681 2.30634 3.87547 2.40934 3.986L5.55034 7.1255L10.7598 0.487995C10.7692 0.476447 10.7792 0.465429 10.7898 0.454995H10.7883Z" fill="white"/>
</svg>
