<svg width="22" height="22" viewBox="0 0 22 22" fill="none" xmlns="http://www.w3.org/2000/svg">
<path d="M11.972 9.42342L18.935 2.45142H14V0.951416H21.5V8.45142H20V3.51642L13.028 10.4809L11.972 9.42492V9.42342ZM16.9295 13.2679C17.5485 13.2679 18.1425 13.5121 18.5825 13.9474C18.7475 14.1124 18.9305 14.2834 19.133 14.4634L19.778 15.0379C20.003 15.2404 20.2145 15.4519 20.4095 15.6694C20.6045 15.8884 20.789 16.1119 20.9615 16.3384C21.1325 16.5634 21.2615 16.8064 21.347 17.0644C21.434 17.3224 21.485 17.5804 21.5 17.8384C21.4994 18.4568 21.2553 19.0502 20.8205 19.4899C20.4215 19.8889 20.063 20.2399 19.742 20.5459C19.438 20.8376 19.1042 21.0965 18.746 21.3184C18.401 21.5284 18.0155 21.6859 17.5865 21.7879C17.0899 21.8968 16.5829 21.9516 16.0745 21.9514C15.1848 21.9455 14.3007 21.8112 13.4495 21.5524C12.5204 21.2747 11.6211 20.9059 10.7645 20.4514C9.84901 19.9664 8.9755 19.4059 8.153 18.7759C7.29951 18.1261 6.49254 17.4174 5.738 16.6549C4.9805 15.8899 4.277 15.0799 3.629 14.2294C3.00234 13.4124 2.44918 12.5415 1.976 11.6269C1.53591 10.7755 1.17538 9.88518 0.899 8.96742C0.64156 8.13184 0.50715 7.26323 0.5 6.38892C0.5 5.79492 0.551 5.28792 0.653 4.86492C0.747572 4.46015 0.905521 4.07287 1.121 3.71742C1.331 3.37242 1.5905 3.04242 1.895 2.72142C2.1995 2.40042 2.555 2.03742 2.96 1.63092C3.40041 1.19524 3.995 0.951037 4.6145 0.951416C5.0045 0.951416 5.3795 1.05642 5.7395 1.26642C6.0995 1.47942 6.4475 1.73592 6.7835 2.04192C7.118 2.34642 7.4285 2.66592 7.709 3.00192C7.9895 3.33792 8.255 3.62742 8.504 3.86892C8.93931 4.30895 9.18348 4.90294 9.1835 5.52192C9.18886 5.80269 9.13786 6.0817 9.0335 6.34242C8.93854 6.57353 8.81237 6.79055 8.6585 6.98742C8.50844 7.17592 8.34341 7.35199 8.165 7.51392C7.985 7.67892 7.8215 7.83492 7.673 7.98342C7.53517 8.11978 7.40592 8.26456 7.286 8.41692C7.17972 8.54901 7.12579 8.7156 7.1345 8.88492C7.1345 8.97942 7.205 9.12792 7.3445 9.33042C7.52561 9.58369 7.72145 9.82611 7.931 10.0564C8.51356 10.711 9.11945 11.3444 9.7475 11.9554C10.0985 12.3004 10.439 12.6304 10.7675 12.9514C11.0945 13.2724 11.4125 13.5769 11.717 13.8664C12.0215 14.1544 12.2795 14.4004 12.4895 14.6044C12.6995 14.8069 12.8645 14.9644 12.9815 15.0724C13.1151 15.211 13.2942 15.2968 13.4859 15.3142C13.6776 15.3315 13.8692 15.2792 14.0255 15.1669C14.165 15.0649 14.3105 14.9389 14.459 14.7919C14.6075 14.6419 14.759 14.4784 14.915 14.2984C15.071 14.1184 15.251 13.9549 15.455 13.8064C15.6575 13.6579 15.872 13.5289 16.1 13.4194C16.3612 13.3043 16.6459 13.2524 16.931 13.2679H16.9295ZM16.0745 20.4514C16.5515 20.4514 16.949 20.4079 17.27 20.3224C17.5833 20.2395 17.8804 20.1047 18.149 19.9234C18.4145 19.7434 18.6635 19.5334 18.899 19.2919C19.133 19.0489 19.418 18.7639 19.754 18.4369C19.919 18.2719 20 18.0769 20 17.8504C20 17.7484 19.937 17.6044 19.8125 17.4154C19.6651 17.1983 19.5085 16.9876 19.343 16.7839C19.1432 16.5355 18.9277 16.3 18.698 16.0789C18.458 15.8464 18.2225 15.6304 17.996 15.4354C17.7989 15.263 17.5915 15.1027 17.375 14.9554C17.1875 14.8309 17.039 14.7679 16.9295 14.7679C16.7616 14.7692 16.5982 14.8221 16.4615 14.9194C16.3036 15.0286 16.1578 15.1543 16.0265 15.2944C15.887 15.4444 15.734 15.6079 15.5705 15.7879C15.4055 15.9679 15.2255 16.1314 15.0305 16.2799C14.8355 16.4284 14.621 16.5574 14.3855 16.6669C14.128 16.7803 13.8476 16.8322 13.5665 16.8184C13.2587 16.8204 12.9538 16.7603 12.6698 16.6417C12.3857 16.5231 12.1285 16.3486 11.9135 16.1284L6.3245 10.5364C6.10867 10.3221 5.93738 10.0672 5.8205 9.78642C5.70215 9.49977 5.63855 9.19349 5.633 8.88342C5.633 8.57892 5.684 8.30892 5.7845 8.07492C5.8865 7.84092 6.011 7.62192 6.1595 7.41792C6.3095 7.21542 6.473 7.03992 6.653 6.89142C6.833 6.74292 6.9965 6.58692 7.145 6.42192C7.2935 6.25842 7.4225 6.11442 7.532 5.98842C7.64249 5.85864 7.69697 5.69032 7.6835 5.52042C7.6835 5.41842 7.6205 5.27442 7.496 5.08542C7.35062 4.87111 7.19442 4.66434 7.028 4.46592C6.82411 4.22147 6.60887 3.98671 6.383 3.76242C6.15871 3.53654 5.92395 3.3213 5.6795 3.11742C5.47609 2.94765 5.26486 2.78748 5.0465 2.63742C4.8515 2.50392 4.7075 2.44242 4.613 2.44992C4.50196 2.44797 4.39171 2.4688 4.28903 2.51111C4.18635 2.55342 4.09343 2.61631 4.016 2.69592C3.73273 2.97916 3.44773 3.26067 3.161 3.54042C2.92391 3.76718 2.71171 4.0186 2.528 4.29042C2.3502 4.55941 2.21935 4.85663 2.141 5.16942C2.04759 5.55699 2.00026 5.95424 2 6.35292C2 7.10292 2.12 7.87542 2.363 8.67192C2.62105 9.50728 2.9586 10.316 3.371 11.0869C3.8015 11.8984 4.316 12.6889 4.9175 13.4539C5.519 14.2189 6.164 14.9494 6.8525 15.6439C8.20059 17.0081 9.73965 18.1692 11.4215 19.0909C12.1782 19.5037 12.9754 19.8375 13.8005 20.0869C14.5379 20.3131 15.3033 20.4353 16.0745 20.4499V20.4514Z" fill="#121212"/>
</svg>
